<svg id="Capa_1" enable-background="new 0 0 512 512" height="512" viewBox="0 0 512 512" width="512" xmlns="http://www.w3.org/2000/svg"><g><path d="m482 196v225h-452v-225c0-24.901 20.099-45 45-45h362c24.901 0 45 20.099 45 45z" fill="#47568c"/><path d="m482 196v225h-226v-270h181c24.901 0 45 20.099 45 45z" fill="#29376d"/><path d="m452 196v165h-392v-165c0-8.401 6.599-15 15-15h362c8.401 0 15 6.599 15 15z" fill="#a8ebfa"/><path d="m452 361h-196v-180h181c8.401 0 15 6.599 15 15z" fill="#76e2f8"/><path d="m512 406c0 24.901-20.099 45-45 45h-422c-24.901 0-45-20.099-45-45 0-8.401 6.599-15 15-15h482c8.401 0 15 6.599 15 15z" fill="#f2f2fc"/><path d="m512 406c0 24.901-20.099 45-45 45h-211v-60h241c8.401 0 15 6.599 15 15z" fill="#e2d9fb"/><g><path d="m316 61h-60-60c-57.891 0-105 47.109-105 105v77.578c0 31.67 25.752 57.422 57.422 57.422 15.337 0 29.766-5.977 40.605-16.816l13.184-13.184h53.789 53.789l13.184 13.184c10.84 10.84 25.269 16.816 40.605 16.816 31.67 0 58.422-25.752 58.422-57.422v-77.578c0-57.891-48.109-105-106-105z" fill="#61729b"/><path d="m322.973 284.184c10.84 10.84 25.269 16.816 40.605 16.816 31.67 0 58.422-25.752 58.422-57.422v-77.578c0-57.891-48.109-105-106-105h-60v210h53.789z" fill="#47568c"/><path d="m196 211c-24.814 0-45-20.186-45-45s20.186-45 45-45 45 20.186 45 45-20.186 45-45 45z" fill="#f2f2fc"/><path d="m316 211c-24.814 0-45-20.186-45-45s20.186-45 45-45 45 20.186 45 45-20.186 45-45 45z" fill="#e2d9fb"/><circle cx="196" cy="166" fill="#ffa4ff" r="15"/><circle cx="316" cy="166" fill="#76e2f8" r="15"/></g></g></svg>