<svg xmlns="http://www.w3.org/2000/svg" viewBox="0 0 1100 800"><defs><style>.cls-1{isolation:isolate;}.cls-2{fill:#ebb044;}.cls-3{opacity:0.09;}.cls-4{fill:#e5d1bd;}.cls-5{fill:#3b455a;}.cls-6{fill:#474ebb;}.cls-7{fill:#7fc5a3;}.cls-8{fill:#534741;}.cls-9{fill:#eac5b0;}.cls-10{fill:#f7f7f7;}.cls-11{fill:#d34e4e;}.cls-12{fill:#59595b;}.cls-13{fill:#e6e6e7;}.cls-14{fill:#272525;opacity:0.42;}.cls-14,.cls-22{mix-blend-mode:multiply;}.cls-15{fill:#eacdb0;}.cls-16{opacity:0.1;}.cls-17{fill:#fff;}.cls-18{fill:#7b4f34;}.cls-19{fill:#161216;opacity:0.06;}.cls-20{fill:#ccd2d9;}.cls-21{fill:#e6e6e6;}.cls-22{opacity:0.08;}.cls-23{fill:#273d54;}</style></defs><title>Artboard 195</title><g class="cls-1"><g id="background"><rect class="cls-2" y="1" width="1100" height="800"/></g><g id="object"><path class="cls-3" d="M915.89,647.11a309.54,309.54,0,0,1,46.26,12.39c9.32,3.33,19.37,8,23,17.25,4.49,11.32-3.42,24.49-14.21,30.12s-23.52,5.67-35.69,5.59c-126.75-.79-253.5.08-380.25.95l-61.71.42c-3.78,0-7.74.1-11,1.94-7.38,4.14-1.56,7.65-2.66,12.64-1.35,6.13-4.3,11.39-9.66,15-8,5.37-18.12,6.34-27.75,7.14l-89,7.45c-43.65,3.65-87.51,7.31-131.19,4.15-15.89-1.15-32.3-3.4-45.79-11.86-7.46-4.68-14-11.51-16.27-20s.51-18.67,8-23.27c2.75-1.69,6-2.58,8.52-4.56s4.28-5.7,2.58-8.44c-10.17,0-96.26,5.79-68-25.29,11.61-12.75,56.83-8.53,72.19-9.57,41.37-2.79,82.8-4.48,124.25-5.38,38.92-.84,76.65-4.43,115.51-6.68,82.72-4.79,165.52-8.21,248.38-9.36q64.61-.9,129.23.17C839.18,638.55,878.2,639.91,915.89,647.11Z"/><path class="cls-4" d="M165,647.77c-3.14.21-6-.89-9.06-1.24a155.74,155.74,0,0,1,3.63-31.67c4.73,5.25,8.71,2.2,8.55,12.07C168.09,630.13,164.4,642.91,165,647.77Z"/><path class="cls-5" d="M155.27,641.19c-3.57-1.28-4.37,7.25-4.4,9.25a15.43,15.43,0,0,1-.18,3.6,9.66,9.66,0,0,1-2,3.4L143.49,664a11.68,11.68,0,0,0-2,3.15c-1,2.92.67,6.38,3.43,7.78,9.59,4.84,18.34-6.89,20.42-14.63.32-1.18.55-2.39.78-3.59.48-2.5,2.37-7.94,1.38-10.38-1.16-2.84-4.66-.78-7-1.85C158.44,643.44,156.72,641.7,155.27,641.19Z"/><path class="cls-6" d="M223.36,470.64c-8.93,24.32-19.25,48.12-25.12,73.58-7.27,31.46-19,62.13-25,93.66a77.89,77.89,0,0,1-11.63-.5c-4.43-.52-11.45-1.72-13.05-6.55-.81-2.47.05-6.48.18-9.05.4-8.21,1-16.42,1.59-24.62,1.71-23.2,2.88-46.69,7.15-69.57,4.49-24.07,8.79-48.22,12.74-72.28,2-12.44,4.55-24.8,7.65-37,.79-3.15,9.09-35.6,10.72-35.34a152.29,152.29,0,0,1,54.28,19.47c1.63,1,3.21,2.12,3.78,3.85s.05,3.22-.47,4.79c-5,15-11.75,29-17.11,43.88C227.21,460.14,225.31,465.32,223.36,470.64Z"/><path class="cls-4" d="M228.56,642.25c2.93,1.14,6,.94,9,1.52a156.68,156.68,0,0,0,6-31.32c-6.08,3.61-9-.49-11.76,9C230.87,624.5,230.59,637.8,228.56,642.25Z"/><path class="cls-5" d="M240.64,640.66c0,5.83,4.6,12.11,7.14,17.35a3.6,3.6,0,0,1-.59,4.69,7.33,7.33,0,0,1-3,2.86,7.07,7.07,0,0,1-4.1,0c-2.27-.5-4.52-1.1-6.73-1.8a4.9,4.9,0,0,1-1.57-.73,4.79,4.79,0,0,1-1.15-1.68c-1.57-3.15-2.9-5.39-2.82-8.9s.55-7.38-.12-11c-.32-1.74-.76-4,.74-4.93,1.15-.74,3.26.28,4.52.49,2.22.36,4.27.22,6.31,1.39a2.92,2.92,0,0,1,1.08.92A2.48,2.48,0,0,1,240.64,640.66Z"/><path class="cls-6" d="M225.53,455.79c1.3,25.88,4.07,51.66,2.11,77.72-2.42,32.19-.37,65-4,96.85a79.34,79.34,0,0,0,11.25,3c4.38.81,11.44,1.76,14.4-2.37,1.51-2.12,1.88-6.21,2.53-8.7,2.06-8,3.94-16,5.8-24,5.27-22.66,11.14-45.44,13.87-68.55,2.87-24.31,5.95-48.65,9.33-72.8,1.75-12.48,3-25,3.7-37.61.18-3.24,1.91-36.69.27-36.93a152.17,152.17,0,0,0-57.6,2.45c-1.85.44-3.71,1.07-4.76,2.55s-1,3.06-1,4.71c.36,15.78,2.6,31.17,3.29,47C225,444.61,225.25,450.13,225.53,455.79Z"/><path class="cls-5" d="M497.66,667.13a7.57,7.57,0,0,1,2.16-3.5c.55-.48,1.17-.85,1.71-1.35,2.5-2.33,2.22-4.56,5.91-4.06,4.19.58,8.38,1.35,12.56,2a1,1,0,0,1,.47.17,1,1,0,0,1,.26.68c.17,1.45.34,2.9.52,4.35.46,3.92,4,5.07,6.85,6.62l2.29,1.21c3.26,1.73,13.15,5.58,8.27,10.69-2,2.11-5.51,2.11-8.2,2.38s-5.21-.36-7.77-.71a79.63,79.63,0,0,1-23.2-8c-2.67-1.42-2.49-5.44-2.26-8.29A11.56,11.56,0,0,1,497.66,667.13Z"/><polygon class="cls-6" points="509.41 412.32 501.04 445.07 510.32 538.42 499.41 662.63 523.93 664.7 555.74 545.89 580.83 415.9 509.41 412.32"/><path class="cls-5" d="M634.7,670.36a7.52,7.52,0,0,1,.86-4c.36-.63.83-1.19,1.16-1.84,1.59-3,.58-5,4.23-5.79,4.15-.85,8.35-1.52,12.52-2.27a.91.91,0,0,1,.49,0,1,1,0,0,1,.47.55c.65,1.31,1.3,2.62,1.94,3.93,1.75,3.54,5.44,3.45,8.67,4l2.56.38c3.65.54,14.26.88,11.36,7.32-1.2,2.67-4.5,3.83-6.94,5s-5,1.4-7.56,1.91a79.75,79.75,0,0,1-24.53.24c-3-.45-4.16-4.3-4.89-7.07A10.92,10.92,0,0,1,634.7,670.36Z"/><polygon class="cls-6" points="560.94 426.17 551.92 451.01 603.78 544.78 634.85 665.52 658.65 659.32 649.09 536.7 629.48 405.77 560.94 426.17"/><path class="cls-7" d="M480.85,421.15c.21-6.1.57-11.2.62-13a472.39,472.39,0,0,1,4.28-49.75c2-15,4.59-30.1,7.37-45.24,4.36-23.75,8.32-44.67,17.06-67.25,3.11-8,6.29-16.18,11.65-22.86,4.94-6.16,12.31-10.38,19.71-12.86,3.45-1.15,7.34-2.14,10.8-2.93,3.92-.88,5.88.89,9.63,2.49,2.52,1.08,5.48,1.37,8.09,2.28,15.52,5.44,24.38,16.4,29.63,32l12.67,37.53c3.47,10.27,6.94,20.55,9.95,31,7.88,27.29,12.53,55.4,16,83.59,1.71,14.13,3.12,28.29,4.47,42.46.86,9.06-3.74,5.25-9.18,2.48-9.37-4.77-18.68-9.8-29.19-11.52a88.92,88.92,0,0,0-15.48-.8c-31.45.45-63,5.13-92.56,15.94a16.27,16.27,0,0,0-5,2.53c-1.91,1.6-4.5,5.24-7.27,3.34-1.72-1.19-2.13-5.22-2.45-7C480.36,436.15,480.61,428.51,480.85,421.15Z"/><path class="cls-8" d="M555.87,145.53a38.34,38.34,0,0,1,8.25,15.63c.42,1.53.93,3.29,2.36,3.92s.87,3.07,1.57,1.54,3.06-6.82,2.84-8.5a63.88,63.88,0,0,0-2.67-11.59c-1.09-3.28-2.56-6.63-5.3-8.69a19.31,19.31,0,0,0-5.5-2.56c-2.78-.94-5.63-1.88-8.55-1.77-5,.18-7.59,2.61-2.55,5.06A30.58,30.58,0,0,1,555.87,145.53Z"/><path class="cls-9" d="M540.94,218.13l20.34-2.63A126.92,126.92,0,0,0,559,197.42c5.55-2.32,11.91-5.77,12.48-12.37a20.88,20.88,0,0,0-.74-6.26l-5.67-25.63c-.65-2.95-1.34-6-3-8.51-2.84-4.4-7.93-6.26-12.68-7.07-12.14-2.09-25,1-33.76,9.89a19.32,19.32,0,0,0-5.26,8.57c-1.35,5.24.28,11,1.89,16.27l4.47,14.74c1.71,5.65,4.07,12.06,9.15,14.1,2.69,1.08,5.77.69,8.25,2.32C538.56,206.34,538.44,213.24,540.94,218.13Z"/><path class="cls-5" d="M572,174.93c-.46-1.56-2.2-6-3.87-2.6a5,5,0,0,0-.15,3,10.91,10.91,0,0,1,.38,3.09c-.22,2.35-2.37,3.89-4.51,4.33a5.17,5.17,0,0,1-2.59,0,7.74,7.74,0,0,1-2.26-1.32l-5.18-3.84c-3-2.21-7.35,0-10.42,1.17a20.54,20.54,0,0,0-9.34,6.36l-.71,1a11,11,0,0,1-1.89,2.17c-2.49,2-6.31,1.37-8.87-.78-1.18-1-2.37-2.34-3.82-2.22a3,3,0,0,0-2.35,2.31,8.78,8.78,0,0,0,0,3.68,26.77,26.77,0,0,0,5.14,12.35c6,7.55,14.13,6.81,22,4.82l9.33-2.36c5.69-1.43,11.68-3,15.73-7.52,3.56-3.94,4.93-9.59,4.75-15.13A34.38,34.38,0,0,0,572,174.93Zm-18.18,16.75c-2.54,2.75-5.84,3.61-9.43,3.35-1.53-.12-1.48-2.69.05-2.58,3,.22,5.6-.39,7.72-2.68C553.23,188.62,554.89,190.54,553.83,191.68Z"/><path class="cls-5" d="M562.63,128.44a46.5,46.5,0,0,0-.22-6.57,12.33,12.33,0,0,1-5.94,1.9c-.29-1.22-.57-2.45-.86-3.67-.24-1-14,1.35-15.1,1.5-10.53,1.49-20.16,2.81-28.21,10.56-6.87,6.62-10.34,15-9.42,24.6.87,9.2,6.42,20.22,13.2,26.48-.58-2.37-3.21-7.68-3.17-10.06a20.92,20.92,0,0,1,.69-7,27.12,27.12,0,0,1,6.95-11.93c5.17-5.22,11.74-8.86,18.54-11.45,6.23-2.37,13.89-5,20.65-4.7,3.24.14,3.93.8,5.06-2.76.2-.62,1.32-7.67,1.06-7.62Z"/><path class="cls-10" d="M471.17,156.31l6.8,29.34,12.14,7.25,45.38-10.5,6-13.34a2,2,0,0,1,3.32-.77l11.37,9.33,45.21-10.46,7.73-11.85L602.28,126Z"/><rect class="cls-11" x="484.69" y="153.89" width="44.44" height="26.81" rx="2.35" transform="translate(-24.67 118.6) rotate(-13.03)"/><rect class="cls-6" x="552.7" y="138.15" width="44.44" height="26.81" rx="2.35" transform="translate(-19.37 133.52) rotate(-13.03)"/><rect class="cls-5" x="440.43" y="443.5" width="302.85" height="201.56" transform="translate(-96.99 129.52) rotate(-11.55)"/><rect class="cls-12" x="416.7" y="410.37" width="303.78" height="35.44" transform="translate(-74.2 122.5) rotate(-11.55)"/><polygon class="cls-10" points="685.67 422.25 720.95 415.04 713.85 380.32 713.29 380.44 685.67 422.25"/><polygon class="cls-13" points="416.23 441.14 422.23 470.52 445.61 435.14 416.23 441.14"/><polygon class="cls-10" points="498.36 424.36 470.74 466.17 525.45 454.99 553.08 413.18 498.36 424.36"/><polygon class="cls-10" points="605.83 402.4 578.2 444.21 632.91 433.03 660.54 391.22 605.83 402.4"/><polygon class="cls-5" points="445.61 435.14 422.23 470.52 423.32 475.86 470.74 466.17 498.36 424.36 445.61 435.14"/><polygon class="cls-5" points="553.08 413.18 525.45 454.99 578.2 444.21 605.83 402.4 553.08 413.18"/><polygon class="cls-5" points="660.54 391.22 632.91 433.03 685.67 422.25 713.29 380.44 660.54 391.22"/><polygon class="cls-13" points="448.96 425.67 416.4 441.05 401.26 409.01 401.78 408.77 448.96 425.67"/><polygon class="cls-10" points="675.91 279.21 688.73 306.33 648.8 292.03 675.91 279.21"/><polygon class="cls-10" points="600.12 315.03 647.3 331.93 596.81 355.79 549.63 338.89 600.12 315.03"/><polygon class="cls-10" points="500.95 361.9 548.13 378.8 497.64 402.66 450.46 385.76 500.95 361.9"/><polygon class="cls-5" points="648.8 292.03 688.73 306.33 691.06 311.25 647.3 331.93 600.12 315.03 648.8 292.03"/><polygon class="cls-5" points="549.63 338.89 596.81 355.79 548.13 378.8 500.95 361.9 549.63 338.89"/><polygon class="cls-5" points="450.46 385.76 497.64 402.66 448.96 425.67 401.78 408.77 450.46 385.76"/><polygon class="cls-5" points="423.32 475.86 401.28 409.06 433.83 393.67 495.04 461.21 423.32 475.86"/><polygon class="cls-14" points="433.83 393.67 469.32 416.04 458.4 420.77 433.83 393.67"/><polygon class="cls-14" points="467.38 430.69 505.46 459.08 495.04 461.21 467.38 430.69"/><path class="cls-10" d="M431,414.19a4.8,4.8,0,1,1-5.76-3.58A4.79,4.79,0,0,1,431,414.19Z"/><path class="cls-10" d="M436,456.75a4.8,4.8,0,1,1-5.77-3.58A4.8,4.8,0,0,1,436,456.75Z"/><path class="cls-10" d="M470.49,448.72a4.8,4.8,0,1,1-5.77-3.58A4.8,4.8,0,0,1,470.49,448.72Z"/><rect class="cls-13" x="465.82" y="600.24" width="275.36" height="2.05" transform="translate(-108.16 133) rotate(-11.55)"/><rect class="cls-13" x="557.29" y="613.27" width="2.26" height="33.45" transform="translate(-114.82 124.56) rotate(-11.55)"/><rect class="cls-13" x="655.1" y="593.28" width="2.26" height="33.45" transform="translate(-108.84 143.73) rotate(-11.55)"/><rect class="cls-13" x="440.08" y="474.16" width="275.36" height="2.26" transform="translate(-83.46 125.3) rotate(-11.55)"/><path class="cls-9" d="M474,395a11,11,0,0,0,1.34,4.39c1.2,1.77,3.38,2.54,5.44,3.13a27.39,27.39,0,0,0,9.9,1.35,11.76,11.76,0,0,0,8.63-4.53,73.08,73.08,0,0,0-5.65-9.07c-.17-.91,1.09-1.33,2-1.33s2.18-.25,2.18-1.18a1.64,1.64,0,0,0-.3-.81c-1.74-2.89-4.36-5.12-6.93-7.31L480.48,371a3.5,3.5,0,0,0-4.36-.87c-3.05,1.05-6.19,2-9.15,3.23C467.61,380.88,472.72,387.5,474,395Z"/><polygon class="cls-7" points="528.44 216.8 435.36 313.61 467.13 385.73 489.91 374.58 476.12 318.2 532.91 286.94 528.44 216.8"/><path class="cls-15" d="M672.63,209.73a2,2,0,0,0,.65-1.28c0-.62-.58-1.07-1-1.52a4.69,4.69,0,0,1,.7-6.83,4.37,4.37,0,0,1,6.33,2.26,21.26,21.26,0,0,0,7.15-4.79c.77-.77,1.59-1.67,2.68-1.71a3.85,3.85,0,0,1,1.87.57c1.29.66,2.57,1.34,3.84,2,1.69.93,3.47,2,4.15,3.82,1.07,2.82-1,5.77-3,8.06a7,7,0,0,1-1.44,1.39,10.06,10.06,0,0,1-2.22.84,23.14,23.14,0,0,0-5,2.58l-14.93,9.21c-.16.08-4.24-6.78-4.24-7.73C668.17,213.89,671,211.66,672.63,209.73Z"/><polygon class="cls-7" points="570.06 212.01 635.76 239.2 665.3 212.01 683.94 218.6 635.76 280.97 581.22 280.97 570.06 212.01"/><rect class="cls-11" x="645.98" y="78.68" width="129.78" height="133.85" rx="2.21" transform="translate(89.06 -228.42) rotate(19.45)"/><g class="cls-16"><path d="M637.52,190.67l105.32,37.2a7.31,7.31,0,0,0,9.34-4.38l22.6-64C752.18,223.49,682.45,201.76,637.52,190.67Z"/></g><path class="cls-17" d="M672.94,72.68,666,92.25c3.46-8.12,13.91-24.77,39.32-15.79l-23.07-8.15A7.31,7.31,0,0,0,672.94,72.68Z"/><polygon class="cls-10" points="744.96 157.64 693.95 98.84 668.34 171.37 744.96 157.64"/><polygon class="cls-18" points="815.85 218.91 819.39 210.05 827.17 206.76 827.33 204.77 824.89 204.51 830.59 199.95 831.83 194.2 826.55 188.52 818.57 187.28 813.38 193.19 811.5 202.29 806.13 214.22 815.85 218.91"/><path class="cls-6" d="M821.82,218.74a4.55,4.55,0,0,1,.55,1.57c.52,3.58-10.68,18.57-12.5,22.85a146.2,146.2,0,0,0-8.69,28l40.91-3.23A361.93,361.93,0,0,1,806,347.62a4.44,4.44,0,0,1-2.47,2.32,4.39,4.39,0,0,1-3.11-1,175.3,175.3,0,0,1-50.87-48.92c-11.89-17.31,15.76-41.93,25.94-55.73l28.62-38.78C808.24,208.49,819.16,213.82,821.82,218.74Z"/><path class="cls-18" d="M842.64,204.65a16.87,16.87,0,0,1,3.17-6.75c.45-.52,1-1,1.39-1.49,14.87-18.19,46.49-14.51,52,14.94,3,15.84-7,32.84-21.33,38.31.56,4.19-.1,9.28,0,12.46a3,3,0,0,1-.39,1.89,2.43,2.43,0,0,1-1.49.75,21.5,21.5,0,0,1-15.36-2.36,2.6,2.6,0,0,1-.9-.75,2.93,2.93,0,0,1-.33-1.41,69.73,69.73,0,0,1,.25-10.32c-8.55-2.79-14.76-10.83-17.38-19.54C839.8,222.06,840.32,213,842.64,204.65Z"/><path class="cls-5" d="M813.57,645.21l-7,7.3c-4.51,4.7-3,12.69,3.13,15,3.59,1.34,8.53.83,15.12-4.23l14.74-18.74-2.87-5.64-16.57-1.58Z"/><path class="cls-5" d="M829.05,440.07,783,544.72l33.27,96.38L839,639.38l6.43-74.4s69.41-97.32,64.71-100.2S829.05,440.07,829.05,440.07Z"/><path class="cls-5" d="M937.61,661.91,933.1,671c-2.9,5.83.94,13,7.45,13.35,3.84.21,8.4-1.75,13.18-8.54l8.48-22.28L957.78,649,941.5,652.4Z"/><path class="cls-5" d="M863.21,477.35c-6.18,12.59,9,44.51,12.6,56.93,4.06,13.92,6.1,36.24,14.13,48.45l49,74.46,21.24-8.45c-4.66-21.15-12.32-43.32-14.94-64.67-3.79-30.89,19.84-63.6,26.36-94.77,1.9-9.08,3.21-18.53,1.27-27.6s-7.68-17.8-16.35-21.11c-13.28-5.08-27.45,3.52-39.47,11.1-14.59,9.2-30.12,17.54-47.07,20.69A8.91,8.91,0,0,0,863.21,477.35Z"/><path class="cls-6" d="M928.69,273.77c22.64,18.53,31.32,50,36.77,79.49a707.08,707.08,0,0,1,10,79.18c.66,9.44.91,19.73-4.36,27.34-3.46,5-8.85,8.09-14.14,10.83a255,255,0,0,1-128.17,28.25c-4.91-.22-10.09-.67-14.17-3.6-3-2.19-5.16-5.55-7-8.9-18.61-33.5-20.4-74.21-17.93-112.72,1.78-27.73,5.83-56.25,19.84-79.68C835.15,251.15,891,242.9,928.69,273.77Z"/><path class="cls-10" d="M971.79,348.6a3.35,3.35,0,0,0-3-.24S835.35,401.6,832.21,402.8a5.54,5.54,0,0,0-1.54.67,3.34,3.34,0,0,0-1.26,2.92l14,148.16a3,3,0,0,1-3.14,3.32,51.88,51.88,0,0,0-24.78,6c-20.67,10.72-30.79,32.28-22.55,48,4.07,7.8,11.88,13,22,14.63a43.52,43.52,0,0,0,11.08.32A53,53,0,0,0,845.35,621c16.17-8.39,26.33-23.58,25.38-37.86,0-.11,0-.22,0-.33L859.64,465.76a3,3,0,0,1,1.91-3.11L952,426.58a3,3,0,0,1,4.16,2.53l8,84.45a3.05,3.05,0,0,1-3.14,3.32,51.77,51.77,0,0,0-24.79,6c-9.85,5.11-17.65,12.81-22,21.68-4.46,9.2-4.67,18.56-.6,26.36s11.89,13,22,14.63c9.76,1.57,20.56-.38,30.41-5.49,16.37-8.5,26.54-23.87,25.35-38.29,0-.06,0-.11,0-.17l-18-190.47A3.29,3.29,0,0,0,971.79,348.6ZM952.6,391.71l.57,6.09a3,3,0,0,1-1.89,3.11l-90.4,36.33a3,3,0,0,1-4.17-2.53l-.6-6.35a3,3,0,0,1,1.9-3.11l90.42-36.07A3.05,3.05,0,0,1,952.6,391.71Z"/><path class="cls-19" d="M802.09,621.78A33.57,33.57,0,0,0,815,626.53a43.52,43.52,0,0,0,11.08.32A53,53,0,0,0,845.35,621c16.17-8.39,26.33-23.58,25.38-37.86,0-.11,0-.22,0-.33l-3.09-32.67C850.46,596.42,821.17,614.65,802.09,621.78Z"/><path class="cls-19" d="M966.05,580.05c16.37-8.5,26.54-23.87,25.35-38.29,0-.06,0-.11,0-.17l-2.46-26c-19,43.68-49.1,59.3-66.69,64.83a33.35,33.35,0,0,0,13.4,5.1C945.4,587.11,956.2,585.16,966.05,580.05Z"/><path class="cls-5" d="M846.81,233a6.65,6.65,0,0,0,.81,2.12c1.84,2.85,6,2.61,9.37,2.31a66.25,66.25,0,0,1,15.22.38,28.38,28.38,0,0,0,5.95.52c4.43-.3,14.21-12.86,16.49-8a4.83,4.83,0,0,1-.17,3.38c-1.11,3.69-2.31,7.54-5,10.28-3,3-7.28,4.16-11.37,5.21a23.29,23.29,0,0,1-15.54,0c-9.17-2.44-20.35-6.47-22.19-17.51-.33-2,.35-4.67,2.37-4.92,1.74-.22,3.08,1.57,3.52,3.27C846.5,231,846.6,232,846.81,233Z"/><polygon class="cls-18" points="908.45 397.81 906.72 407.2 899.75 411.96 899.98 413.94 902.42 413.71 897.74 419.31 897.66 425.19 903.95 429.72 912.01 429.36 915.95 422.55 915.99 413.25 918.91 400.5 908.45 397.81"/><path class="cls-6" d="M902.44,399.2l-.66-.42c3.46-13.54,18.9-37,16-50.09-1.51-6.9-10.74-16.25-14.67-22.25l-16.77-25.59c-1.56-2.39-3.16-4.86-3.77-7.66-.78-3.59.17-7.33,1.55-10.73,2.37-5.81,6.23-11.26,11.75-14.24,8.47-4.57,25-3.79,32.64,2.08,5.27,4.07,8.91,9.85,12.34,15.56q7,11.67,13.49,23.66c4.6,8.51,9.1,17.53,9.23,27.21.08,6.47-1.8,12.79-3.67,19-4.36,14.49-23.93,58.07-45.3,49.3A79.37,79.37,0,0,1,902.44,399.2Z"/><path class="cls-11" d="M910.81,210.07c-.53-3.64-2-7.3-4.79-9.62-.29-.24-.57-.46-.86-.67a40.34,40.34,0,0,0-7.91-25.91c-8.35-11.26-22.34-18.12-37.52-15.53-18.05,3.07-25,23.43-25.19,40.39a7.59,7.59,0,0,0-2.39,2.24c-3,4.25-3.44,11.88-3.47,15.8,0,3,.19,6.23,1.68,8.89,1.85,3.34,8.12,6.66,11.14,2.5,1.44-2,.65-6.4.55-8.79-.14-3.17-.42-6.34-.58-9.51a23,23,0,0,1,.08-2.68,3.78,3.78,0,0,0,.6-2.58c-1.2-9.94.26-21.77,6.48-29.82,5.94-7.68,9.43-9.5,16.26-9.59,17.92-.24,33.86,13.23,33.56,31.68,0,.23,0,.59,0,1-5.63,1.92-7,14.36-6.21,20.49a17.17,17.17,0,0,0,3.18,8.65c1.92,2.4,5.09,3.9,7.9,3.06s4.56-3.64,5.69-6.45A26.55,26.55,0,0,0,910.81,210.07Z"/><path class="cls-20" d="M214.65,248.1c-.32.1-.63.21-.94.33-5.2,2-9.63,5.53-14,9-6.5,5.25-9.7,7.55-12.21,15.33a188,188,0,0,0-5.25,22.39c-7.36,38.38-8.78,76.59-14.07,115.26-1.43,10.53-2.55,22.9,5.24,30.13,13.81-10.75,31.17-11.37,47.92-11.39,11.76,0,23.27-3.82,35.06-2.5,11.27,1.25,21.11-1.57,32.54-.82,2.76.18,6.28.15,7.36-2.39-4-11.87-3.89-24.62-4.78-37.1-2.32-32.26-13-63.23-17.32-95.27-1.47-10.9-2.25-29-10.69-37.22-9.16-9-30.08-9.15-41.86-7.39A39.46,39.46,0,0,0,214.65,248.1Z"/><path class="cls-9" d="M179,402.22c1.7-8.05-3.45-12-8.17-18.81-2.63-3.82-3.67-15-10-14.11a10.23,10.23,0,0,0-3.55.92,9.09,9.09,0,0,0-2.3,1.94c-.53.58-1.5,1.37-1.47,2.14s1.36,2.32,1.79,3c5.45,9.27,7.78,20.26,5.23,31.1a6.63,6.63,0,0,0-.17,3.81,4.86,4.86,0,0,0,3.74,2.64c5.29,1.08,10.76-2.53,13.05-7.42A24.08,24.08,0,0,0,179,402.22Z"/><path class="cls-20" d="M131.54,329c7.31,20.13,20.71,55.07,24.89,53.88a52.49,52.49,0,0,0,18.23-9.43c-5.28-14.13-12.31-28.88-12.79-44.22-.57-18.43,22.86-17.9,37.36-23.92,4.46-1.84,9-3.92,12.18-7.55,3.7-4.24,5-10,5.52-15.66.65-7.49,1.7-23.43-6.44-27.48-12.5-6.22-31.63,12.39-40.92,18.82A240.06,240.06,0,0,0,128,310.07a5.71,5.71,0,0,0-1.67,2.81,5.85,5.85,0,0,0,.44,2.6C127.15,316.68,129,321.93,131.54,329Z"/><path class="cls-9" d="M223.4,247.55a4,4,0,0,0,.8,1.08,9.19,9.19,0,0,0,5.15,2.39,22.91,22.91,0,0,0,7.46-.53c3.33-.63,3.21-2.58,3.69-5.6.27-1.65.43-3.31.56-5,.06-.91-.29-4.18.29-4.82.4-.43,2-.29,2.71-.66a7.65,7.65,0,0,0,2.72-2.7A21.74,21.74,0,0,0,249,226.2l3-10a52.37,52.37,0,0,0,2.41-10.37c.51-5.34-.36-12.87-4.38-16.77-3.68-3.56-9-4.81-14-5.43a29,29,0,0,0-18.88,3.81,15.56,15.56,0,0,0-5.76,5.69c-2.07,3.84-1.91,8.62-1.69,13.1q.3,6.19.61,12.4c.24,4.75.83,10.23,4.39,12.8,1.89,1.37,4.36,1.66,6,3.42,2,2.2,1.9,5.49,2,8.28C222.84,244.73,222.72,246.24,223.4,247.55Z"/><path class="cls-5" d="M244,194.14a7,7,0,0,1,.56,1.21c.76,2.19.24,4.66,1,6.86,1.17,3.48,5.23,5.57,5.85,9.2.5,3-1.53,5.78-1.7,8.78-.19,3.28,1.91,6.38,1.59,9.62a21.34,21.34,0,0,1-3.75,9c.52-.69,5.23-.45,6.45-1.19,1.87-1.14,2.08-1.86,2.64-3.81s.12-3.85,1-5.83c1.05-2.43,3.22-4.22,4-6.81,1-3.54-.84-7.27-.7-11,.23-5.58,5.05-10.83,3.3-16.13-1-3.11-4.05-5.1-5.75-7.9-1.29-2.13-1.76-4.63-2.66-6.95s-2.43-4.64-4.81-5.35a40.07,40.07,0,0,0-4.11-.48c-2.35-.44-4.3-2.06-6.56-2.82-3.24-1.1-8.95,2.17-10.84,4.92s-.93,5,1,7.44C233.65,187,241.37,189.58,244,194.14Z"/><path class="cls-5" d="M200.42,177.67c-1.94,1.42-4.33,2.45-6.1,4.11-3.46,3.24-4.11,8.42-4.24,13.16-.11,4.21-2,8-1.5,12.35a10.77,10.77,0,0,0,4,7.68c3,2.17,7.69,2.53,9,6,1.45,3.74-2.42,8.46-.07,11.71,1.3,1.79,3.84,2,5.7,3.26,2.07,1.34,3.14,3.74,4.4,5.86s3.17,4.25,5.64,4.3c.1-3.75.21-6.73-1.4-10.16-.93-2-3.68-5.7-1.57-7.86,1.33-1.8,4.48-2.39,4.56-4.63a5.17,5.17,0,0,0-1.27-2.83,12.88,12.88,0,0,1-1-11.71,16.81,16.81,0,0,1,8.31-8.57c4.3-2.08,3.61-3.13,4.86-7.24,1.14-3.79,3.29-4.67,6.7-6,3.06-1.24,4-2,5.17-4.88.83-2.09,1.84-4.6.65-6.94a14.14,14.14,0,0,0-4.33-4.45c-3.47-2.65-7.37-5.43-11.72-5.12-2.41.18-4.69,1.31-7.11,1.45-1.61.09-3.21-.26-4.83-.32a12.83,12.83,0,0,0-7.88,2.39c-2.25,1.65-2.19,3.38-3.44,5.73A8.44,8.44,0,0,1,200.42,177.67Z"/><path class="cls-5" d="M210.16,162.22c.42-2.62.15-6-2.35-6.91-1.37-.48-2.9.05-4.32-.24-3-.62-4.07-4.29-5.66-6.95a2.31,2.31,0,0,0-.94-1,3.74,3.74,0,0,0-2,.05c-3,.37-5.31-2.61-8.16-3.69a7.14,7.14,0,0,0-9,4.48c-.44,1.48-.36,3.08-.77,4.57-1.66,6-10.51,8.61-10.73,14.87-.15,4.23,4,8.29,2.38,12.2-1,2.51-4.25,4.22-3.88,6.9a3.72,3.72,0,0,0,3.81,2.87,7.5,7.5,0,0,0,4.66-2.12c2.08-1.82,3.65-4.15,5.63-6.08s4.63-3.49,7.38-3.14,5.06,2.4,7.7,2c2.11-.35,3.68-2.23,5.75-2.77s4,.27,6,.39,4.45-.92,4.51-2.92a4.68,4.68,0,0,1,0-1.45c.42-1.29,2.63-1.22,3-2.51-1-1.61-2.52-1-3.27-3.14C209.41,166,209.9,163.86,210.16,162.22Z"/><path class="cls-9" d="M320.69,191.19l-1.53.06a2.43,2.43,0,0,0-.89.17,2.36,2.36,0,0,0-.68.58,36.48,36.48,0,0,0-5.2,8.35c-.56,1.12-.66,1.2-.12,2.39s1.35,2.6,2.06,3.86c.35,1.94.78,3.87,1,5.83.46,5-3.85,16,1.94,18.54a9.7,9.7,0,0,0,3.47,1,7.91,7.91,0,0,0,2.86-.59c.72-.26,1.93-.48,2.26-1.21s-.09-2.9-.11-3.79c-.08-2.53-.15-5.07-.23-7.6s.06-5.42,1.93-6.76a10.5,10.5,0,0,0,1.25-.84,4.25,4.25,0,0,0,.88-1.52,31.19,31.19,0,0,0,1.88-6.42c.33-2-.81-3.05-1.82-4.63s-1.07-3.67-2-5.37-2.49-2-4.35-2.07C322.42,191.18,321.56,191.17,320.69,191.19Z"/><path class="cls-20" d="M325.14,285.5c.83-5.27,1.6-10.65,2.73-16.11a167.55,167.55,0,0,0,2.89-46.92,46.23,46.23,0,0,0-19.95-.92c.08,0-8.12,36.57-9.9,40.25-4.58,9.5-4.2,8.37-12.55,4.35-7.32-3.53-14.06-8.9-21.26-12.79-7-3.76-14.62-7.3-22.46-6.24q-1.08,13.56-1.15,27.18c0,3.25,0,6.59,1.22,9.62s3.25,5.34,5.33,7.69c12.91,14.64,26.35,29.67,44,37.93a7.85,7.85,0,0,0,2.76.86,8.13,8.13,0,0,0,4.26-1.41C317.7,319.77,322.27,303.51,325.14,285.5Z"/><path class="cls-5" d="M425.33,225.44,395.4,253.08c-8.33,7.7-22.45,6.19-31.87-3.45L235.82,118.84c-4.51-4.62-5.09-11.34-1.27-14.87l56.1-51.82c3.81-3.53,10.44-2.39,14.65,2.5L424.54,193.26C433.34,203.49,433.66,217.74,425.33,225.44Z"/><polygon class="cls-21" points="283.43 125.29 271.48 136.24 266.93 131.25 278.88 120.29 283.43 125.29"/><polygon class="cls-21" points="301.33 108.86 289.39 119.82 284.84 114.82 296.78 103.86 301.33 108.86"/><polygon class="cls-21" points="319.23 92.44 307.29 103.39 302.74 98.39 314.68 87.44 319.23 92.44"/><polygon class="cls-21" points="296.3 139.42 284.35 150.38 279.8 145.38 291.75 134.43 296.3 139.42"/><polygon class="cls-21" points="314.2 123 302.26 133.95 297.71 128.96 309.65 118 314.2 123"/><polygon class="cls-21" points="332.1 106.57 320.16 117.53 315.61 112.53 327.55 101.58 332.1 106.57"/><polygon class="cls-21" points="309.17 153.56 297.22 164.51 292.68 159.52 304.62 148.56 309.17 153.56"/><polygon class="cls-21" points="327.07 137.13 315.13 148.09 310.58 143.09 322.52 132.14 327.07 137.13"/><polygon class="cls-21" points="344.97 120.71 333.03 131.66 328.48 126.67 340.42 115.71 344.97 120.71"/><path class="cls-21" d="M373.21,177.09l7.33-1.05a26.13,26.13,0,0,0-20.65-21.88l-1.3,6.6A18.85,18.85,0,0,1,373.21,177.09Z"/><path class="cls-21" d="M357.64,197.62l1.21,7.84a25.87,25.87,0,0,0,21.52-20.88l-7.48-1.43A18.65,18.65,0,0,1,357.64,197.62Z"/><path class="cls-21" d="M336.38,183.21l-7,1.32A26.12,26.12,0,0,0,351,205.45l1.16-7.75A18.84,18.84,0,0,1,336.38,183.21Z"/><path class="cls-21" d="M351.24,160.62,350,154.1a25.77,25.77,0,0,0-13.82,7.47,26,26,0,0,0-6.95,14.14l6.83,1.07A18.67,18.67,0,0,1,351.24,160.62Z"/><path class="cls-21" d="M355.35,168.49a11.22,11.22,0,1,1-11.65,10.69A11.24,11.24,0,0,1,355.35,168.49Z"/><polygon class="cls-7" points="372.27 224.1 362.2 233.34 360.06 230.99 370.13 221.75 372.27 224.1"/><polygon class="cls-2" points="390.07 207.02 380 216.26 377.86 213.91 387.93 204.67 390.07 207.02"/><polygon class="cls-6" points="407.88 189.95 397.81 199.18 395.66 196.83 405.73 187.59 407.88 189.95"/><path class="cls-7" d="M301.57,70a6.39,6.39,0,1,1-9-.42A6.43,6.43,0,0,1,301.57,70Z"/><path class="cls-7" d="M347.62,464.36c38.72-5.16,39,45.92,42.76,72.42,1.28,9.09,3.5,18.83,3.44,28,0,7.37-2,14.54-1.37,22.05.45,5.77,3,12,8.49,14.36,2.77,1.18,5.94,1.24,8.71,2.41s5.14,4.32,3.75,6.9a7.34,7.34,0,0,1-3.25,2.64l-20.55,11a110.21,110.21,0,0,1-16.13,7.57c-8,2.76-16.53,3.7-25,4.12A213.66,213.66,0,0,1,283.37,629c-7.92-2.1-20.9-7.58-21.94-17.33-.35-3.27.69-6.5,1.72-9.6q12.66-38.4,25.33-76.79c7.09-21.49,10.45-52.52,35.56-60.49C332,462.25,339,465.51,347.62,464.36Z"/><path class="cls-5" d="M351.74,690.87a207,207,0,0,0,20.93,7.52c3.76,1.12,7.63,2.15,11.55,2,9.18-.39,15.78-10.64,7.25-17.28a46.08,46.08,0,0,0-12.36-6.87c-6.54-2.41-2.71,2.74-4.69,7.12-2.29,5-4.09,4.93-8.81,2.82-6.09-2.72-10.07-6-17.05-5.53-1.93.11-4.17.67-4.91,2.45a3.92,3.92,0,0,0,1,4,11.37,11.37,0,0,0,3.72,2.29Z"/><path class="cls-15" d="M368.86,687.64l5.92.32c2.15.11,4.54.14,6.13-1.29,1.95-1.75,1.73-5.06.16-7.16s-4.12-3.21-6.62-4c-6-1.93-12.39-2.52-18.71-2.77a4.56,4.56,0,0,0-1.88.19,3.89,3.89,0,0,0-1.95,2.55C348.32,686.36,361.19,687.23,368.86,687.64Z"/><path class="cls-5" d="M406.39,645.94c-1.44-12.44-7.68-22.32-19.2-27.72-9.34-4.39-19.84-5.42-30.08-6.73-22.8-2.93-44.56-5.85-67.58-5-18.41.72-29.75,16.43-38.37,31.92-5.43,9.76-3.92,14.34,2.91,22.52a82.67,82.67,0,0,0,22.5,18.8c16.92,9.62,42.91,7.24,61.54,5.17a143.79,143.79,0,0,0,50.48-15.41C398.69,664.27,407.79,658.05,406.39,645.94Z"/><path class="cls-15" d="M292.92,706.18a4.71,4.71,0,0,0,.17,2.61,3.48,3.48,0,0,0,1.32,1.37c4.07,2.6,9.54-.2,12.66-3.88s5.23-8.35,9.2-11.09c9.1-6.27.77-17.74-8.74-15.11C296.43,683.15,294.11,696.49,292.92,706.18Z"/><path class="cls-5" d="M415.51,647.1c7.85-5.77,15.73-12.31,18.6-22S432.93,601.61,422.8,596c-12.36-6.83-24.5,1.57-33.31,9.5-18.05,16.22-37.72,30.57-56.95,45.41-6.5,5-29.05,23.48-29.05,23.48-.62,2.6,11.5,26.15,14.71,25.29C353.28,690.4,387.41,667.75,415.51,647.1Z"/><path class="cls-5" d="M238.93,658.29c-7.69-3.75-15.43-8.26-18.47-17.25s.42-23.79,9.94-32c11.62-10,23.49-4.78,32.16.88,17.77,11.56,37,20.83,55.88,30.71,6.37,3.33,28.51,16,28.51,16,.67,2.45-10.21,29.17-13.31,29.14C299.79,685.52,266.45,671.68,238.93,658.29Z"/><path class="cls-5" d="M291.75,683.36a207,207,0,0,0-7.63,20.89c-1.14,3.76-2.19,7.62-2.05,11.54.34,9.18,10.56,15.83,17.24,7.34a46,46,0,0,0,6.93-12.32c2.45-6.54-2.72-2.73-7.09-4.74-5-2.31-4.91-4.1-2.77-8.82,2.75-6.07,6-10,5.61-17-.1-1.93-.65-4.17-2.43-4.92a3.92,3.92,0,0,0-4,1,11.11,11.11,0,0,0-2.31,3.71C292.71,681.11,292.22,682.23,291.75,683.36Z"/><path class="cls-5" d="M316,434.67A72.15,72.15,0,0,0,327.27,450a122.15,122.15,0,0,1-2-33.27,3.24,3.24,0,0,0-.46-2.44,3,3,0,0,0-2.2-.71C308.47,413.06,310.67,425,316,434.67Z"/><path class="cls-9" d="M341.57,392c-34.08-3.46-24.32,40.79-14.63,58.21,1.84,3.31,4.34,6.84,7.86,9.07.59.37-1.39,7.63-1.59,8.51-.59,2.5-2.27,5.35.46,7.18a8,8,0,0,0,3.9,1.08,25.49,25.49,0,0,0,5.24-.17,11.68,11.68,0,0,0,5.19-1.77c4.34-3,2.36-10.67,2.25-15.17a19.88,19.88,0,0,0,2.88-2.24C365,445.77,379.09,395.83,341.57,392Z"/><path class="cls-5" d="M354.82,444.69c2.75,2.68,7.39,1,10.46-1.32,12.6-9.48,17.72-27.73,11.88-42.38-4.87-12.26-22.64-18.89-23-2.54-.13,5.8,4.67,12.92,5,19.27C359.64,426.78,357.05,436,354.82,444.69Z"/><path class="cls-5" d="M306.1,382.41c-14.22,12.19-17.36,33.21-29.77,47.24A55.56,55.56,0,0,0,318.88,422c12.12-8,42.78-17.67,34.91-35.13C345.78,369.06,318.55,371.73,306.1,382.41Z"/><path class="cls-11" d="M384.4,640.37a44.48,44.48,0,0,0-37.56-76l-31.37-36.07a44.49,44.49,0,0,0-70-47.73l0-.07L186,532.18l.05.08a25.57,25.57,0,0,0,26.32,42.19l32.74-9.07,55.26,63.53-13.52,31.18A25.57,25.57,0,0,0,325,692l.07,0,59.36-51.63Z"/><path class="cls-22" d="M384.31,640.41s-71,58.39-99.5,25.63A25.57,25.57,0,0,0,325,692l.07,0,59.35-51.62Z"/><path class="cls-23" d="M287,536.82l-7.79-9a2.47,2.47,0,0,1,.24-3.49l9-7.8a2.47,2.47,0,0,0,.25-3.49l-7.8-9a2.47,2.47,0,0,0-3.49-.24l-9,7.79a2.48,2.48,0,0,1-3.5-.24l-7.63-8.78a2.47,2.47,0,0,0-3.49-.24l-9,7.8a2.47,2.47,0,0,0-.24,3.49l7.64,8.77a2.49,2.49,0,0,1-.25,3.5l-8.77,7.63a2.47,2.47,0,0,0-.25,3.49l7.8,9a2.47,2.47,0,0,0,3.49.24l8.78-7.64a2.48,2.48,0,0,1,3.49.25l7.8,9a2.47,2.47,0,0,0,3.49.24l9-7.79A2.47,2.47,0,0,0,287,536.82Z"/><circle class="cls-23" cx="359.81" cy="607.49" r="8.25" transform="translate(-184.35 157.6) rotate(-19.78)"/><circle class="cls-23" cx="336.26" cy="606.1" r="8.25" transform="translate(-316.76 373.72) rotate(-41.39)"/><path class="cls-23" d="M362.87,636.7a8.25,8.25,0,1,1,.81-11.64A8.25,8.25,0,0,1,362.87,636.7Z"/><path class="cls-23" d="M340.14,635.53a8.25,8.25,0,1,1,.81-11.64A8.25,8.25,0,0,1,340.14,635.53Z"/><path class="cls-10" d="M287.22,533.33l-7.8-9a2.48,2.48,0,0,1,.24-3.5l9-7.79a2.47,2.47,0,0,0,.24-3.49l-7.8-9a2.47,2.47,0,0,0-3.49-.24l-9,7.8a2.48,2.48,0,0,1-3.49-.25l-7.64-8.77a2.47,2.47,0,0,0-3.49-.25l-9,7.8a2.48,2.48,0,0,0-.25,3.49l7.64,8.78a2.47,2.47,0,0,1-.24,3.49l-8.78,7.63a2.48,2.48,0,0,0-.24,3.5l7.79,9a2.47,2.47,0,0,0,3.49.24l8.78-7.63a2.47,2.47,0,0,1,3.49.24l7.8,9a2.47,2.47,0,0,0,3.49.25l9-7.8A2.47,2.47,0,0,0,287.22,533.33Z"/><circle class="cls-10" cx="360.06" cy="604" r="8.25" transform="translate(-267.5 921.23) rotate(-86.02)"/><path class="cls-10" d="M341.92,608.84a8.25,8.25,0,1,1,.81-11.64A8.25,8.25,0,0,1,341.92,608.84Z"/><circle class="cls-10" cx="357.7" cy="626.99" r="8.25" transform="translate(-325.21 393.12) rotate(-41.39)"/><path class="cls-10" d="M340.39,632a8.25,8.25,0,1,1,.81-11.64A8.24,8.24,0,0,1,340.39,632Z"/><path class="cls-22" d="M301.43,498.62a42.15,42.15,0,0,1,9.16,17.61,37,37,0,0,0-67.27-23.11A42.34,42.34,0,0,1,301.43,498.62Z"/><path class="cls-22" d="M179.33,544.76h0a25.57,25.57,0,0,0,33.08,29.69l31.76-8.8S206,575.43,179.33,544.76Z"/><polygon class="cls-22" points="305.51 617.29 281.57 589.63 257.62 561.98 245.09 565.4 272.83 597.2 300.32 629.21 305.51 617.29"/><path class="cls-9" d="M334.18,590.31a3.82,3.82,0,0,1-.46.21A36.51,36.51,0,0,1,317.28,593a2.13,2.13,0,0,1-.8-.19,1.84,1.84,0,0,1-.62-.65c-1.63-2.31-3.3-4.72-3.76-7.51a2.26,2.26,0,0,1,.6-2.29,2.6,2.6,0,0,1,1.66-.24c.89.08,3.22.72,4,.17s.17-1.68-.09-2.39l3.3-2c.64-.39,2.33-1.93,3.09-1.91l11.72.23,3.77,7.92C338.42,586,336.45,589.11,334.18,590.31Z"/><path class="cls-7" d="M398.19,532.31c1.58,7.54,2.92,15.14,4.24,22.7a15.69,15.69,0,0,1,.32,5.37c-.88,5.22-6.41,8.08-11.27,10.14l-23.14,9.83c-7.7,3.27-16.14,8.4-24.27,10.3-4.72,1.1-4.81-.85-8.12-5-1.62-2-3.72-6.06-5.95-7.38,3,1.27,11.48-6.41,13.69-8.12,7-5.42,14.26-10.65,20.84-16.64,1.59-1.45,3.23-3.09,3.57-5.21a9.88,9.88,0,0,0-.74-4.56L350,491.29c-1.46-4.42-2.93-9.24-1.43-13.65,2.46-7.27,12.29-9.79,19.36-6.78s11.73,9.79,15.31,16.59C390.61,501.47,394.92,516.75,398.19,532.31Z"/><path class="cls-9" d="M278,585.63a3.07,3.07,0,0,0,.42.07,30.62,30.62,0,0,0,13.91-1.64,1.72,1.72,0,0,0,.61-.33,1.81,1.81,0,0,0,.36-.67c.8-2.24,1.62-4.57,1.37-6.94-.08-.7-.34-1.5-1-1.73a2.21,2.21,0,0,0-1.4.18c-.71.27-2.46,1.3-3.19,1s-.52-1.33-.46-2l-3.14-.92c-.61-.18-2.33-1-2.94-.86l-9.46,2.81L271.81,582C273.61,583.09,275.9,585.17,278,585.63Z"/><path class="cls-7" d="M244.94,571.05a16.12,16.12,0,0,0-.45,2.4c-.42,3.61,0,7.54,2.3,10.36a13.12,13.12,0,0,0,3.88,3.05c5.62,3.06,11.88,3,18,1.75,3.43-.72,2,1.11,4.71-1.93a18.36,18.36,0,0,0,3.67-8.76c.3-3.61.74-1.41-1.9-3.81s-6.67-4.2-9.62-6c-3.14-2-6.61-3.61-10.3-3.78s-7.66,1.44-9.44,4.68A9.28,9.28,0,0,0,244.94,571.05Z"/></g></g></svg>