<svg width="310" height="180" viewBox="0 0 310 180" fill="none" xmlns="http://www.w3.org/2000/svg"><rect x="30.5" y=".5" width="187.995" height="117.306" rx="9.5" fill="#000" stroke="url(#a)"/><rect x="34.878" y="4.878" width="179.268" height="108.537" rx="8" fill="url(#b)"/><rect x="102.7" y="83.5" width="136.451" height="90.307" rx="9.5" fill="#000" stroke="url(#c)"/><rect x="105.512" y="86.659" width="130.488" height="84.146" rx="8" fill="url(#d)"/><rect x="86.5" y="174.316" width="168.85" height="4.891" rx="2.445" fill="#000" stroke="url(#e)"/><rect x=".5" y="83.5" width="97.781" height="63.634" rx="9.5" fill="#000" stroke="url(#f)"/><rect x="3.659" y="86.659" width="91.463" height="57.317" rx="8" fill="url(#g)"/><path d="M48.5514 12.6187C46.5902 14.5799 46.4111 17.6587 48.0138 19.8243L46.3641 21.4741C46.0434 21.7948 46.0434 22.315 46.3641 22.636C46.6848 22.9567 47.2049 22.9567 47.5259 22.636L49.1756 20.9862C51.3412 22.589 54.4198 22.4099 56.381 20.4486C58.5397 18.2899 58.5397 14.7774 56.381 12.619C54.2223 10.4606 50.7097 10.4602 48.5514 12.6187ZM55.2192 19.2868C53.9004 20.6057 51.8633 20.7785 50.3558 19.8059L51.007 19.1547C51.3277 18.834 51.3277 18.3139 51.007 17.9929C50.6864 17.6722 50.1662 17.6722 49.8452 17.9929L49.194 18.6441C48.2215 17.1366 48.3943 15.0994 49.7132 13.7805C51.2311 12.2625 53.7012 12.2625 55.2192 13.7805C56.7372 15.2985 56.7372 17.7688 55.2192 19.2868ZM50.2277 23.1167C50.5484 23.4374 50.5484 23.9575 50.2277 24.2785L46.7469 27.7595C46.4262 28.0802 45.9061 28.0802 45.5851 27.7595C45.2644 27.4388 45.2644 26.9187 45.5851 26.5976L49.0662 23.1167C49.3869 22.796 49.907 22.796 50.2277 23.1167ZM41.2405 23.4147C40.9198 23.094 40.9198 22.5739 41.2405 22.2529L44.7216 18.7716C45.0423 18.4509 45.5624 18.4509 45.8834 18.7716C46.2041 19.0923 46.2041 19.6124 45.8834 19.9334L42.4023 23.4147C42.0813 23.7357 41.5615 23.7357 41.2405 23.4147Z" fill="#fff"/><path d="M118.551 93.6187C116.59 95.5799 116.411 98.6587 118.014 100.824L116.364 102.474C116.043 102.795 116.043 103.315 116.364 103.636C116.685 103.957 117.205 103.957 117.526 103.636L119.176 101.986C121.341 103.589 124.42 103.41 126.381 101.449C128.54 99.2899 128.54 95.7774 126.381 93.619C124.222 91.4606 120.71 91.4602 118.551 93.6187ZM125.219 100.287C123.9 101.606 121.863 101.779 120.356 100.806L121.007 100.155C121.328 99.834 121.328 99.3139 121.007 98.9929C120.686 98.6722 120.166 98.6722 119.845 98.9929L119.194 99.6441C118.221 98.1366 118.394 96.0994 119.713 94.7805C121.231 93.2625 123.701 93.2625 125.219 94.7805C126.737 96.2985 126.737 98.7688 125.219 100.287ZM120.228 104.117C120.548 104.437 120.548 104.958 120.228 105.279L116.747 108.759C116.426 109.08 115.906 109.08 115.585 108.759C115.264 108.439 115.264 107.919 115.585 107.598L119.066 104.117C119.387 103.796 119.907 103.796 120.228 104.117ZM111.241 104.415C110.92 104.094 110.92 103.574 111.241 103.253L114.722 99.7716C115.042 99.4509 115.562 99.4509 115.883 99.7716C116.204 100.092 116.204 100.612 115.883 100.933L112.402 104.415C112.081 104.736 111.562 104.736 111.241 104.415Z" fill="#fff"/><path d="M15.663 93.4282C13.9325 95.1588 13.7745 97.8753 15.1887 99.7862L13.733 101.242C13.4501 101.525 13.4501 101.984 13.733 102.267C14.016 102.55 14.4749 102.55 14.7582 102.267L16.2138 100.811C18.1246 102.226 20.841 102.068 22.5715 100.337C24.4762 98.4323 24.4762 95.333 22.5715 93.4285C20.6668 91.524 17.5674 91.5237 15.663 93.4282ZM21.5464 99.3119C20.3827 100.476 18.5852 100.628 17.2551 99.77L17.8297 99.1953C18.1127 98.9124 18.1127 98.4534 17.8297 98.1702C17.5468 97.8872 17.0879 97.8872 16.8046 98.1702L16.23 98.7448C15.3719 97.4146 15.5244 95.6171 16.6881 94.4534C18.0275 93.1139 20.207 93.1139 21.5464 94.4534C22.8857 95.7928 22.8857 97.9724 21.5464 99.3119ZM17.1421 102.691C17.425 102.974 17.425 103.433 17.1421 103.716L14.0708 106.788C13.7878 107.071 13.3289 107.071 13.0457 106.788C12.7627 106.505 12.7627 106.046 13.0457 105.763L16.1172 102.691C16.4002 102.408 16.8591 102.408 17.1421 102.691ZM9.21221 102.954C8.92926 102.671 8.92926 102.212 9.21221 101.929L12.2838 98.8573C12.5667 98.5743 13.0257 98.5743 13.3089 98.8573C13.5919 99.1402 13.5919 99.5992 13.3089 99.8824L10.2373 102.954C9.95409 103.237 9.49545 103.237 9.21221 102.954Z" fill="#fff"/><rect x="192.5" y="113.5" width="117" height="43" rx="9.5" fill="#000" stroke="#267DB6"/><rect x="196" y="117" width="110" height="36" rx="6" fill="#23272F"/><path d="M232.527 129.648C233.383 129.648 234.119 129.82 234.735 130.164C235.351 130.5 235.819 130.984 236.139 131.616C236.459 132.24 236.619 132.976 236.619 133.824C236.619 134.672 236.459 135.412 236.139 136.044C235.819 136.668 235.351 137.152 234.735 137.496C234.119 137.832 233.383 138 232.527 138H229.443V129.648H232.527ZM232.527 136.596C233.287 136.596 233.879 136.36 234.303 135.888C234.735 135.416 234.951 134.728 234.951 133.824C234.951 132.92 234.735 132.232 234.303 131.76C233.879 131.288 233.287 131.052 232.527 131.052H231.027V136.596H232.527ZM244.17 135.348H239.814C239.878 135.828 240.054 136.196 240.342 136.452C240.638 136.708 241.03 136.836 241.518 136.836C241.878 136.836 242.266 136.772 242.682 136.644C243.106 136.508 243.498 136.324 243.858 136.092H243.906V137.376C243.586 137.624 243.218 137.816 242.802 137.952C242.394 138.08 241.962 138.144 241.506 138.144C240.85 138.144 240.278 138.012 239.79 137.748C239.302 137.484 238.926 137.104 238.662 136.608C238.398 136.112 238.266 135.532 238.266 134.868C238.266 134.22 238.39 133.648 238.638 133.152C238.894 132.656 239.25 132.272 239.706 132C240.162 131.728 240.69 131.592 241.29 131.592C241.874 131.592 242.382 131.724 242.814 131.988C243.254 132.252 243.59 132.632 243.822 133.128C244.054 133.624 244.17 134.204 244.17 134.868V135.348ZM241.29 132.864C240.914 132.864 240.598 132.988 240.342 133.236C240.094 133.484 239.926 133.828 239.838 134.268H242.538C242.474 133.812 242.338 133.464 242.13 133.224C241.922 132.984 241.642 132.864 241.29 132.864ZM248.702 138.144C248.046 138.144 247.47 138.012 246.974 137.748C246.486 137.476 246.11 137.096 245.846 136.608C245.582 136.12 245.45 135.548 245.45 134.892C245.45 134.236 245.586 133.66 245.858 133.164C246.13 132.66 246.51 132.272 246.998 132C247.494 131.728 248.062 131.592 248.702 131.592C249.422 131.592 250.03 131.74 250.526 132.036V133.428H250.478C250.214 133.268 249.926 133.148 249.614 133.068C249.31 132.988 249.026 132.948 248.762 132.948C248.21 132.948 247.794 133.112 247.514 133.44C247.234 133.768 247.094 134.252 247.094 134.892C247.094 136.156 247.642 136.788 248.738 136.788C249.026 136.788 249.318 136.744 249.614 136.656C249.918 136.56 250.206 136.428 250.478 136.26H250.526V137.676C250.014 137.988 249.406 138.144 248.702 138.144ZM255.086 138.144C254.454 138.144 253.898 138.012 253.418 137.748C252.938 137.476 252.566 137.092 252.302 136.596C252.046 136.1 251.918 135.524 251.918 134.868C251.918 134.212 252.046 133.636 252.302 133.14C252.566 132.644 252.938 132.264 253.418 132C253.898 131.728 254.454 131.592 255.086 131.592C255.718 131.592 256.274 131.728 256.754 132C257.234 132.264 257.602 132.644 257.858 133.14C258.122 133.636 258.254 134.212 258.254 134.868C258.254 135.524 258.122 136.1 257.858 136.596C257.602 137.092 257.234 137.476 256.754 137.748C256.274 138.012 255.718 138.144 255.086 138.144ZM255.086 136.836C255.558 136.836 255.926 136.668 256.19 136.332C256.454 135.988 256.586 135.5 256.586 134.868C256.586 134.228 256.454 133.74 256.19 133.404C255.926 133.068 255.558 132.9 255.086 132.9C254.614 132.9 254.246 133.068 253.982 133.404C253.718 133.74 253.586 134.228 253.586 134.868C253.586 135.5 253.718 135.988 253.982 136.332C254.246 136.668 254.614 136.836 255.086 136.836ZM264.418 138L264.178 137.16C263.89 137.472 263.554 137.712 263.17 137.88C262.794 138.048 262.398 138.132 261.982 138.132C261.246 138.132 260.662 137.844 260.23 137.268C259.806 136.692 259.594 135.908 259.594 134.916C259.594 133.868 259.838 133.052 260.326 132.468C260.822 131.884 261.518 131.592 262.414 131.592C262.99 131.592 263.526 131.716 264.022 131.964V128.952H265.606V136.608L265.87 138H264.418ZM261.262 134.892C261.262 135.516 261.358 135.996 261.55 136.332C261.742 136.668 262.026 136.836 262.402 136.836C262.93 136.836 263.47 136.572 264.022 136.044V133.08C263.558 132.96 263.134 132.9 262.75 132.9C262.238 132.9 261.862 133.064 261.622 133.392C261.382 133.712 261.262 134.212 261.262 134.892ZM273.198 135.348H268.842C268.906 135.828 269.082 136.196 269.37 136.452C269.666 136.708 270.058 136.836 270.546 136.836C270.906 136.836 271.294 136.772 271.71 136.644C272.134 136.508 272.526 136.324 272.886 136.092H272.934V137.376C272.614 137.624 272.246 137.816 271.83 137.952C271.422 138.08 270.99 138.144 270.534 138.144C269.878 138.144 269.306 138.012 268.818 137.748C268.33 137.484 267.954 137.104 267.69 136.608C267.426 136.112 267.294 135.532 267.294 134.868C267.294 134.22 267.418 133.648 267.666 133.152C267.922 132.656 268.278 132.272 268.734 132C269.19 131.728 269.718 131.592 270.318 131.592C270.902 131.592 271.41 131.724 271.842 131.988C272.282 132.252 272.618 132.632 272.85 133.128C273.082 133.624 273.198 134.204 273.198 134.868V135.348ZM270.318 132.864C269.942 132.864 269.626 132.988 269.37 133.236C269.122 133.484 268.954 133.828 268.866 134.268H271.566C271.502 133.812 271.366 133.464 271.158 133.224C270.95 132.984 270.67 132.864 270.318 132.864Z" fill="#fff"/><defs><linearGradient id="a" x1="30" y1="60.744" x2="218.995" y2="60.744" gradientUnits="userSpaceOnUse"><stop stop-color="#2096D9"/><stop offset="1" stop-color="#5C35EE"/></linearGradient><linearGradient id="b" x1="117.805" y1="113.414" x2="117.805" y2="4.878" gradientUnits="userSpaceOnUse"><stop stop-color="#2096D9"/><stop offset="1" stop-color="#5C35EE"/></linearGradient><linearGradient id="c" x1="102.2" y1="129.881" x2="239.651" y2="129.881" gradientUnits="userSpaceOnUse"><stop stop-color="#2096D9"/><stop offset="1" stop-color="#5C35EE"/></linearGradient><linearGradient id="d" x1="170.757" y1="170.805" x2="170.757" y2="86.659" gradientUnits="userSpaceOnUse"><stop stop-color="#20D9CE"/><stop offset="1" stop-color="#3595EE"/></linearGradient><linearGradient id="e" x1="86" y1="176.841" x2="255.85" y2="176.841" gradientUnits="userSpaceOnUse"><stop stop-color="#2096D9"/><stop offset="1" stop-color="#5C35EE"/></linearGradient><linearGradient id="f" y1="116.186" x2="98.781" y2="116.186" gradientUnits="userSpaceOnUse"><stop stop-color="#2096D9"/><stop offset="1" stop-color="#5C35EE"/></linearGradient><linearGradient id="g" x1="49.39" y1="86.659" x2="49.39" y2="143.976" gradientUnits="userSpaceOnUse"><stop stop-color="#F22E75"/><stop offset="1" stop-color="#EB5757"/></linearGradient></defs></svg>