<svg width="338" height="205" viewBox="0 0 338 205" fill="none" xmlns="http://www.w3.org/2000/svg">
    <rect x="134" y="1" width="203" height="42" rx="9" fill="#191B20" stroke="url(#a)" stroke-width="2"/>
    <path d="M140.907 13.4072C140.907 10.3697 143.37 7.90723 146.407 7.90723H162.407C165.445 7.90723 167.907 10.3697 167.907 13.4072V29.4072C167.907 32.4448 165.445 34.9072 162.407 34.9072H146.407C143.37 34.9072 140.907 32.4448 140.907 29.4072V13.4072Z"
          fill="#191B20" stroke="url(#b)"/>
    <circle cx="319.173" cy="22.222" r="2.963" fill="url(#c)"/>
    <circle cx="308.309" cy="22.222" r="2.963" fill="url(#d)"/>
    <circle cx="297.444" cy="22.222" r="2.963" fill="url(#e)"/>
    <rect x="134" y="49" width="203" height="42" rx="9" fill="#191B20" stroke="url(#f)" stroke-width="2"/>
    <rect x="140.907" y="55.907" width="27" height="27" rx="5.5" fill="#191B20" stroke="url(#g)"/>
    <circle cx="319.173" cy="70.222" r="2.963" fill="url(#h)"/>
    <circle cx="308.309" cy="70.222" r="2.963" fill="url(#i)"/>
    <circle cx="297.444" cy="70.222" r="2.963" fill="url(#j)"/>
    <rect x="134" y="97" width="203" height="42" rx="9" fill="#191B20" stroke="url(#k)" stroke-width="2"/>
    <rect x="140.907" y="103.908" width="27" height="27" rx="5.5" fill="#191B20" stroke="url(#l)"/>
    <circle cx="319.173" cy="118.222" r="2.963" fill="url(#m)"/>
    <circle cx="308.309" cy="118.222" r="2.963" fill="url(#n)"/>
    <circle cx="297.444" cy="118.222" r="2.963" fill="url(#o)"/>
    <rect x="134" y="145" width="203" height="42" rx="9" fill="#191B20" stroke="url(#p)" stroke-width="2"/>
    <rect x="140.907" y="151.907" width="27" height="27" rx="5.5" fill="#191B20" stroke="url(#q)"/>
    <circle cx="319.173" cy="166.222" r="2.963" fill="url(#r)"/>
    <circle cx="308.309" cy="166.222" r="2.963" fill="url(#s)"/>
    <circle cx="297.444" cy="166.222" r="2.963" fill="url(#t)"/>
    <rect x=".5" y="97.5" width="117" height="90" rx="9.5" fill="#000" stroke="#32E785"/>
<!--    <path d="M9.99609 202V194.891H12.3203C13.0918 194.891 13.6712 195.05 14.0586 195.369C14.4492 195.688 14.6445 196.16 14.6445 196.785C14.6445 197.117 14.5501 197.412 14.3613 197.669C14.1725 197.923 13.9154 198.12 13.5898 198.26C13.974 198.367 14.2767 198.572 14.498 198.875C14.7227 199.174 14.835 199.533 14.835 199.949C14.835 200.587 14.6283 201.089 14.2148 201.453C13.8014 201.818 13.2171 202 12.4619 202H9.99609ZM10.9336 198.675V201.233H12.4814C12.9176 201.233 13.2611 201.121 13.5117 200.896C13.7656 200.669 13.8926 200.356 13.8926 199.959C13.8926 199.103 13.4271 198.675 12.4961 198.675H10.9336ZM10.9336 197.923H12.3496C12.7598 197.923 13.0869 197.82 13.3311 197.615C13.5785 197.41 13.7021 197.132 13.7021 196.78C13.7021 196.39 13.5882 196.106 13.3604 195.931C13.1325 195.752 12.7858 195.662 12.3203 195.662H10.9336V197.923ZM15.8457 199.31C15.8457 198.792 15.9466 198.326 16.1484 197.913C16.3535 197.5 16.6367 197.181 16.998 196.956C17.3626 196.731 17.7777 196.619 18.2432 196.619C18.9626 196.619 19.5436 196.868 19.9863 197.366C20.4323 197.864 20.6553 198.527 20.6553 199.354V199.417C20.6553 199.931 20.556 200.394 20.3574 200.804C20.1621 201.211 19.8805 201.528 19.5127 201.756C19.1481 201.984 18.7282 202.098 18.2529 202.098C17.5368 202.098 16.9557 201.849 16.5098 201.351C16.0671 200.853 15.8457 200.193 15.8457 199.373V199.31ZM16.7539 199.417C16.7539 200.003 16.889 200.473 17.1592 200.828C17.4326 201.183 17.7972 201.36 18.2529 201.36C18.7119 201.36 19.0765 201.181 19.3467 200.823C19.6169 200.462 19.752 199.957 19.752 199.31C19.752 198.73 19.6136 198.261 19.3369 197.903C19.0635 197.542 18.6989 197.361 18.2432 197.361C17.7972 197.361 17.4375 197.539 17.1641 197.894C16.8906 198.248 16.7539 198.756 16.7539 199.417ZM21.5488 199.31C21.5488 198.792 21.6497 198.326 21.8516 197.913C22.0566 197.5 22.3398 197.181 22.7012 196.956C23.0658 196.731 23.4808 196.619 23.9463 196.619C24.6657 196.619 25.2467 196.868 25.6895 197.366C26.1354 197.864 26.3584 198.527 26.3584 199.354V199.417C26.3584 199.931 26.2591 200.394 26.0605 200.804C25.8652 201.211 25.5837 201.528 25.2158 201.756C24.8512 201.984 24.4313 202.098 23.9561 202.098C23.2399 202.098 22.6589 201.849 22.2129 201.351C21.7702 200.853 21.5488 200.193 21.5488 199.373V199.31ZM22.457 199.417C22.457 200.003 22.5921 200.473 22.8623 200.828C23.1357 201.183 23.5003 201.36 23.9561 201.36C24.415 201.36 24.7796 201.181 25.0498 200.823C25.32 200.462 25.4551 199.957 25.4551 199.31C25.4551 198.73 25.3167 198.261 25.04 197.903C24.7666 197.542 24.402 197.361 23.9463 197.361C23.5003 197.361 23.1406 197.539 22.8672 197.894C22.5938 198.248 22.457 198.756 22.457 199.417ZM30.5674 200.599C30.5674 200.354 30.4746 200.166 30.2891 200.032C30.1068 199.896 29.7861 199.778 29.3271 199.681C28.8714 199.583 28.5085 199.466 28.2383 199.329C27.9714 199.192 27.7728 199.03 27.6426 198.841C27.5156 198.652 27.4521 198.427 27.4521 198.167C27.4521 197.734 27.6344 197.368 27.999 197.068C28.3669 196.769 28.8356 196.619 29.4053 196.619C30.0042 196.619 30.4893 196.774 30.8604 197.083C31.2347 197.392 31.4219 197.788 31.4219 198.27H30.5137C30.5137 198.022 30.4079 197.809 30.1963 197.63C29.988 197.451 29.7243 197.361 29.4053 197.361C29.0765 197.361 28.8193 197.433 28.6338 197.576C28.4482 197.719 28.3555 197.907 28.3555 198.138C28.3555 198.356 28.4417 198.52 28.6143 198.631C28.7868 198.742 29.0977 198.847 29.5469 198.948C29.9993 199.049 30.3656 199.17 30.6455 199.31C30.9255 199.45 31.1322 199.619 31.2656 199.817C31.4023 200.013 31.4707 200.252 31.4707 200.535C31.4707 201.007 31.2819 201.386 30.9043 201.673C30.5267 201.956 30.0368 202.098 29.4346 202.098C29.0114 202.098 28.637 202.023 28.3115 201.873C27.986 201.723 27.7305 201.515 27.5449 201.248C27.3626 200.978 27.2715 200.687 27.2715 200.374H28.1748C28.1911 200.677 28.3115 200.918 28.5361 201.097C28.764 201.272 29.0635 201.36 29.4346 201.36C29.7764 201.36 30.0498 201.292 30.2549 201.155C30.4632 201.015 30.5674 200.83 30.5674 200.599ZM33.873 195.438V196.717H34.8594V197.415H33.873V200.691C33.873 200.903 33.917 201.062 34.0049 201.17C34.0928 201.274 34.2425 201.326 34.4541 201.326C34.5583 201.326 34.7015 201.307 34.8838 201.268V202C34.6462 202.065 34.415 202.098 34.1904 202.098C33.7868 202.098 33.4824 201.976 33.2773 201.731C33.0723 201.487 32.9697 201.141 32.9697 200.691V197.415H32.0078V196.717H32.9697V195.438H33.873ZM38.1113 202.098C37.3952 202.098 36.8125 201.863 36.3633 201.395C35.9141 200.923 35.6895 200.293 35.6895 199.505V199.339C35.6895 198.815 35.7887 198.348 35.9873 197.938C36.1891 197.524 36.4691 197.202 36.8271 196.971C37.1885 196.736 37.5791 196.619 37.999 196.619C38.6859 196.619 39.2197 196.845 39.6006 197.298C39.9814 197.75 40.1719 198.398 40.1719 199.241V199.617H36.5928C36.6058 200.138 36.7572 200.56 37.0469 200.882C37.3398 201.201 37.7109 201.36 38.1602 201.36C38.4792 201.36 38.7493 201.295 38.9707 201.165C39.1921 201.035 39.3857 200.862 39.5518 200.647L40.1035 201.077C39.6608 201.757 38.9967 202.098 38.1113 202.098ZM37.999 197.361C37.6344 197.361 37.3285 197.495 37.0811 197.762C36.8337 198.025 36.6807 198.396 36.6221 198.875H39.2686V198.807C39.2425 198.348 39.1188 197.993 38.8975 197.742C38.6761 197.488 38.3766 197.361 37.999 197.361ZM43.7754 197.527C43.6387 197.505 43.4906 197.493 43.3311 197.493C42.7386 197.493 42.3366 197.745 42.125 198.25V202H41.2217V196.717H42.1006L42.1152 197.327C42.4115 196.855 42.8314 196.619 43.375 196.619C43.5508 196.619 43.6842 196.642 43.7754 196.688V197.527ZM44.2734 199.31C44.2734 198.792 44.3743 198.326 44.5762 197.913C44.7812 197.5 45.0645 197.181 45.4258 196.956C45.7904 196.731 46.2054 196.619 46.6709 196.619C47.3903 196.619 47.9714 196.868 48.4141 197.366C48.86 197.864 49.083 198.527 49.083 199.354V199.417C49.083 199.931 48.9837 200.394 48.7852 200.804C48.5898 201.211 48.3083 201.528 47.9404 201.756C47.5758 201.984 47.1559 202.098 46.6807 202.098C45.9645 202.098 45.3835 201.849 44.9375 201.351C44.4948 200.853 44.2734 200.193 44.2734 199.373V199.31ZM45.1816 199.417C45.1816 200.003 45.3167 200.473 45.5869 200.828C45.8604 201.183 46.2249 201.36 46.6807 201.36C47.1396 201.36 47.5042 201.181 47.7744 200.823C48.0446 200.462 48.1797 199.957 48.1797 199.31C48.1797 198.73 48.0413 198.261 47.7646 197.903C47.4912 197.542 47.1266 197.361 46.6709 197.361C46.2249 197.361 45.8652 197.539 45.5918 197.894C45.3184 198.248 45.1816 198.756 45.1816 199.417ZM51.1973 202H50.2939V196.717H51.1973V202ZM50.2207 195.315C50.2207 195.169 50.2646 195.045 50.3525 194.944C50.4437 194.843 50.5771 194.793 50.7529 194.793C50.9287 194.793 51.0622 194.843 51.1533 194.944C51.2445 195.045 51.29 195.169 51.29 195.315C51.29 195.462 51.2445 195.584 51.1533 195.682C51.0622 195.779 50.9287 195.828 50.7529 195.828C50.5771 195.828 50.4437 195.779 50.3525 195.682C50.2646 195.584 50.2207 195.462 50.2207 195.315ZM52.4277 199.314C52.4277 198.504 52.6198 197.853 53.0039 197.361C53.388 196.867 53.891 196.619 54.5127 196.619C55.1312 196.619 55.6211 196.831 55.9824 197.254V194.5H56.8857V202H56.0557L56.0117 201.434C55.6504 201.876 55.1475 202.098 54.5029 202.098C53.891 202.098 53.3913 201.847 53.0039 201.346C52.6198 200.844 52.4277 200.19 52.4277 199.383V199.314ZM53.3311 199.417C53.3311 200.016 53.4548 200.485 53.7021 200.823C53.9495 201.162 54.2913 201.331 54.7275 201.331C55.3005 201.331 55.7188 201.074 55.9824 200.56V198.133C55.7122 197.635 55.2972 197.386 54.7373 197.386C54.2946 197.386 53.9495 197.557 53.7021 197.898C53.4548 198.24 53.3311 198.746 53.3311 199.417ZM64.9326 198.714H61.8516V201.233H65.4307V202H60.9141V194.891H65.3818V195.662H61.8516V197.947H64.9326V198.714ZM68.2285 198.646L69.4004 196.717H70.4551L68.7266 199.329L70.5088 202H69.4639L68.2432 200.022L67.0225 202H65.9727L67.7549 199.329L66.0264 196.717H67.0713L68.2285 198.646ZM75.8799 199.417C75.8799 200.221 75.696 200.869 75.3281 201.36C74.9603 201.852 74.4622 202.098 73.834 202.098C73.1927 202.098 72.6882 201.894 72.3203 201.487V204.031H71.417V196.717H72.2422L72.2861 197.303C72.654 196.847 73.165 196.619 73.8193 196.619C74.4541 196.619 74.9554 196.858 75.3232 197.337C75.6943 197.815 75.8799 198.481 75.8799 199.334V199.417ZM74.9766 199.314C74.9766 198.719 74.8496 198.248 74.5957 197.903C74.3418 197.558 73.9935 197.386 73.5508 197.386C73.0039 197.386 72.5938 197.628 72.3203 198.113V200.638C72.5905 201.119 73.0039 201.36 73.5605 201.36C73.9935 201.36 74.3369 201.189 74.5908 200.848C74.848 200.503 74.9766 199.992 74.9766 199.314ZM79.2246 202.098C78.5085 202.098 77.9258 201.863 77.4766 201.395C77.0273 200.923 76.8027 200.293 76.8027 199.505V199.339C76.8027 198.815 76.902 198.348 77.1006 197.938C77.3024 197.524 77.5824 197.202 77.9404 196.971C78.3018 196.736 78.6924 196.619 79.1123 196.619C79.7992 196.619 80.333 196.845 80.7139 197.298C81.0947 197.75 81.2852 198.398 81.2852 199.241V199.617H77.7061C77.7191 200.138 77.8704 200.56 78.1602 200.882C78.4531 201.201 78.8242 201.36 79.2734 201.36C79.5924 201.36 79.8626 201.295 80.084 201.165C80.3053 201.035 80.499 200.862 80.665 200.647L81.2168 201.077C80.7741 201.757 80.11 202.098 79.2246 202.098ZM79.1123 197.361C78.7477 197.361 78.4417 197.495 78.1943 197.762C77.9469 198.025 77.7939 198.396 77.7354 198.875H80.3818V198.807C80.3558 198.348 80.2321 197.993 80.0107 197.742C79.7894 197.488 79.4899 197.361 79.1123 197.361ZM84.8887 197.527C84.752 197.505 84.6038 197.493 84.4443 197.493C83.8519 197.493 83.4499 197.745 83.2383 198.25V202H82.335V196.717H83.2139L83.2285 197.327C83.5247 196.855 83.9447 196.619 84.4883 196.619C84.6641 196.619 84.7975 196.642 84.8887 196.688V197.527ZM86.7051 202H85.8018V196.717H86.7051V202ZM85.7285 195.315C85.7285 195.169 85.7725 195.045 85.8604 194.944C85.9515 194.843 86.085 194.793 86.2607 194.793C86.4365 194.793 86.57 194.843 86.6611 194.944C86.7523 195.045 86.7979 195.169 86.7979 195.315C86.7979 195.462 86.7523 195.584 86.6611 195.682C86.57 195.779 86.4365 195.828 86.2607 195.828C86.085 195.828 85.9515 195.779 85.8604 195.682C85.7725 195.584 85.7285 195.462 85.7285 195.315ZM90.3477 202.098C89.6315 202.098 89.0488 201.863 88.5996 201.395C88.1504 200.923 87.9258 200.293 87.9258 199.505V199.339C87.9258 198.815 88.0251 198.348 88.2236 197.938C88.4255 197.524 88.7054 197.202 89.0635 196.971C89.4248 196.736 89.8154 196.619 90.2354 196.619C90.9222 196.619 91.4561 196.845 91.8369 197.298C92.2178 197.75 92.4082 198.398 92.4082 199.241V199.617H88.8291C88.8421 200.138 88.9935 200.56 89.2832 200.882C89.5762 201.201 89.9473 201.36 90.3965 201.36C90.7155 201.36 90.9857 201.295 91.207 201.165C91.4284 201.035 91.6221 200.862 91.7881 200.647L92.3398 201.077C91.8971 201.757 91.2331 202.098 90.3477 202.098ZM90.2354 197.361C89.8708 197.361 89.5648 197.495 89.3174 197.762C89.07 198.025 88.917 198.396 88.8584 198.875H91.5049V198.807C91.4788 198.348 91.3551 197.993 91.1338 197.742C90.9124 197.488 90.613 197.361 90.2354 197.361ZM94.3125 196.717L94.3418 197.381C94.7454 196.873 95.2728 196.619 95.9238 196.619C97.0404 196.619 97.6035 197.249 97.6133 198.509V202H96.71V198.504C96.7067 198.123 96.6188 197.841 96.4463 197.659C96.277 197.477 96.0117 197.386 95.6504 197.386C95.3574 197.386 95.1003 197.464 94.8789 197.62C94.6576 197.776 94.485 197.981 94.3613 198.235V202H93.458V196.717H94.3125ZM101.095 201.36C101.417 201.36 101.699 201.263 101.939 201.067C102.18 200.872 102.314 200.628 102.34 200.335H103.194C103.178 200.638 103.074 200.926 102.882 201.199C102.69 201.473 102.433 201.691 102.11 201.854C101.791 202.016 101.453 202.098 101.095 202.098C100.375 202.098 99.8024 201.858 99.376 201.38C98.9528 200.898 98.7412 200.241 98.7412 199.407V199.256C98.7412 198.742 98.8356 198.284 99.0244 197.884C99.2132 197.483 99.4834 197.173 99.835 196.951C100.19 196.73 100.608 196.619 101.09 196.619C101.682 196.619 102.174 196.797 102.564 197.151C102.958 197.506 103.168 197.967 103.194 198.533H102.34C102.314 198.191 102.184 197.911 101.949 197.693C101.718 197.472 101.432 197.361 101.09 197.361C100.631 197.361 100.274 197.527 100.021 197.859C99.7699 198.188 99.6445 198.665 99.6445 199.29V199.461C99.6445 200.07 99.7699 200.538 100.021 200.867C100.271 201.196 100.629 201.36 101.095 201.36ZM106.402 202.098C105.686 202.098 105.104 201.863 104.654 201.395C104.205 200.923 103.98 200.293 103.98 199.505V199.339C103.98 198.815 104.08 198.348 104.278 197.938C104.48 197.524 104.76 197.202 105.118 196.971C105.479 196.736 105.87 196.619 106.29 196.619C106.977 196.619 107.511 196.845 107.892 197.298C108.272 197.75 108.463 198.398 108.463 199.241V199.617H104.884C104.897 200.138 105.048 200.56 105.338 200.882C105.631 201.201 106.002 201.36 106.451 201.36C106.77 201.36 107.04 201.295 107.262 201.165C107.483 201.035 107.677 200.862 107.843 200.647L108.395 201.077C107.952 201.757 107.288 202.098 106.402 202.098ZM106.29 197.361C105.925 197.361 105.619 197.495 105.372 197.762C105.125 198.025 104.972 198.396 104.913 198.875H107.56V198.807C107.534 198.348 107.41 197.993 107.188 197.742C106.967 197.488 106.668 197.361 106.29 197.361Z"-->
<!--          fill="#32E785"/>-->
    <rect x=".5" y=".5" width="117" height="43" rx="9.5" fill="#000" stroke="#267DB6"/>
    <rect x="4" y="4" width="110" height="36" rx="6" fill="#23272F"/>
    <path d="M44.2901 16.648H45.8741V25H44.2901V16.648ZM51.5059 18.592C52.1379 18.592 52.6459 18.78 53.0299 19.156C53.4219 19.524 53.6179 20.012 53.6179 20.62V25H52.0339V21.52C52.0339 20.976 51.9499 20.588 51.7819 20.356C51.6219 20.116 51.3539 19.996 50.9779 19.996C50.5619 19.996 50.1219 20.228 49.6579 20.692V25H48.0739V20.128L47.8099 18.736H49.2619L49.4899 19.54C49.8339 19.204 50.1659 18.964 50.4859 18.82C50.8059 18.668 51.1459 18.592 51.5059 18.592ZM59.2776 18.604C59.7496 18.604 60.1656 18.74 60.5256 19.012C60.8936 19.276 61.1776 19.652 61.3776 20.14C61.5856 20.62 61.6896 21.176 61.6896 21.808C61.6896 22.432 61.5696 23 61.3296 23.512C61.0896 24.016 60.7576 24.416 60.3336 24.712C59.9176 25 59.4456 25.144 58.9176 25.144C58.2776 25.144 57.7096 25.012 57.2136 24.748V27.784H55.6296V20.128L55.3656 18.736H56.8176L57.0696 19.624C57.3576 19.296 57.6936 19.044 58.0776 18.868C58.4616 18.692 58.8616 18.604 59.2776 18.604ZM58.5936 23.836C59.5456 23.836 60.0216 23.168 60.0216 21.832C60.0216 21.216 59.9256 20.74 59.7336 20.404C59.5496 20.068 59.2776 19.9 58.9176 19.9C58.3416 19.9 57.7736 20.18 57.2136 20.74V23.644C57.7256 23.772 58.1856 23.836 58.5936 23.836ZM67.7334 25L67.5054 24.184C67.0974 24.544 66.7374 24.796 66.4254 24.94C66.1214 25.076 65.7734 25.144 65.3814 25.144C65.0054 25.144 64.6614 25.056 64.3494 24.88C64.0454 24.704 63.8054 24.464 63.6294 24.16C63.4614 23.848 63.3774 23.5 63.3774 23.116V18.736H64.9614V22.216C64.9614 22.72 65.0414 23.1 65.2014 23.356C65.3614 23.612 65.5934 23.74 65.8974 23.74C66.1534 23.74 66.3934 23.684 66.6174 23.572C66.8414 23.46 67.0814 23.28 67.3374 23.032V18.736H68.9214V23.608L69.1854 25H67.7334ZM72.8532 18.736H74.2932V19.912H72.8532V22.936C72.8532 23.544 73.0852 23.848 73.5492 23.848C73.7652 23.848 74.0172 23.772 74.3052 23.62V24.928C74.1052 25 73.9172 25.052 73.7412 25.084C73.5732 25.124 73.3812 25.144 73.1652 25.144C71.9012 25.144 71.2692 24.408 71.2692 22.936V19.912H70.3572V18.736H71.2692V17.056L72.8532 16.504V18.736Z"
          fill="#fff"/>
    <rect x="177" y="76" width="118" height="40" rx="6" fill="url(#u)"/>
    <path d="M190.364 94.86C190.364 93.972 190.532 93.2 190.868 92.544C191.212 91.888 191.704 91.384 192.344 91.032C192.992 90.68 193.756 90.504 194.636 90.504C195.14 90.504 195.592 90.556 195.992 90.66C196.392 90.764 196.784 90.908 197.168 91.092V92.568H197.12C196.84 92.4 196.492 92.26 196.076 92.148C195.668 92.028 195.228 91.968 194.756 91.968C192.94 91.968 192.032 92.924 192.032 94.836C192.032 95.772 192.248 96.48 192.68 96.96C193.112 97.44 193.744 97.68 194.576 97.68C195.248 97.68 195.748 97.54 196.076 97.26V96H194.492V94.68H197.66V98.1C197.02 98.492 196.468 98.764 196.004 98.916C195.54 99.068 195.048 99.144 194.528 99.144C193.648 99.144 192.896 98.968 192.272 98.616C191.648 98.264 191.172 97.768 190.844 97.128C190.524 96.48 190.364 95.724 190.364 94.86ZM204.971 97.104H201.407L200.711 99H199.127L202.295 90.648H204.143L207.311 99H205.667L204.971 97.104ZM204.479 95.76L203.195 92.208L201.899 95.76H204.479ZM218.186 99H216.602V92.652L214.394 99H212.738L210.482 92.664V99H208.898V90.648H211.382L213.59 96.84L215.738 90.648H218.186V99ZM222.248 92.04V94.128H225.848V95.436H222.248V97.608H226.112V99H220.664V90.648H226.112V92.04H222.248ZM236.479 99L234.775 95.82H233.287V99H231.703V90.648H234.715C235.795 90.648 236.603 90.864 237.139 91.296C237.675 91.728 237.943 92.356 237.943 93.18C237.943 93.764 237.811 94.26 237.547 94.668C237.283 95.076 236.891 95.38 236.371 95.58L238.219 99H236.479ZM233.287 94.428H234.727C235.255 94.428 235.643 94.336 235.891 94.152C236.147 93.968 236.275 93.656 236.275 93.216C236.275 92.792 236.151 92.492 235.903 92.316C235.655 92.14 235.259 92.052 234.715 92.052H233.287V94.428ZM241.689 92.04V94.128H245.289V95.436H241.689V97.608H245.553V99H240.105V90.648H245.553V92.04H241.689ZM254.909 90.648V99H253.325L249.365 93.48V99H247.781V90.648H249.365L253.325 96.156V90.648H254.909ZM260.463 90.648C261.319 90.648 262.055 90.82 262.671 91.164C263.287 91.5 263.755 91.984 264.075 92.616C264.395 93.24 264.555 93.976 264.555 94.824C264.555 95.672 264.395 96.412 264.075 97.044C263.755 97.668 263.287 98.152 262.671 98.496C262.055 98.832 261.319 99 260.463 99H257.379V90.648H260.463ZM260.463 97.596C261.223 97.596 261.815 97.36 262.239 96.888C262.671 96.416 262.887 95.728 262.887 94.824C262.887 93.92 262.671 93.232 262.239 92.76C261.815 92.288 261.223 92.052 260.463 92.052H258.963V97.596H260.463ZM268.326 92.04V94.128H271.926V95.436H268.326V97.608H272.19V99H266.742V90.648H272.19V92.04H268.326ZM279.194 99L277.49 95.82H276.002V99H274.418V90.648H277.43C278.51 90.648 279.318 90.864 279.854 91.296C280.39 91.728 280.658 92.356 280.658 93.18C280.658 93.764 280.526 94.26 280.262 94.668C279.998 95.076 279.606 95.38 279.086 95.58L280.934 99H279.194ZM276.002 94.428H277.442C277.97 94.428 278.358 94.336 278.606 94.152C278.862 93.968 278.99 93.656 278.99 93.216C278.99 92.792 278.866 92.492 278.618 92.316C278.37 92.14 277.974 92.052 277.43 92.052H276.002V94.428Z"
          fill="#fff"/>
    <rect x="4" y="101" width="110" height="40" rx="6" fill="#23272F"/>
    <path d="M40.475 124.144C39.555 124.144 38.763 123.968 38.099 123.616C37.443 123.264 36.939 122.764 36.587 122.116C36.243 121.46 36.071 120.696 36.071 119.824C36.071 118.952 36.247 118.192 36.599 117.544C36.951 116.888 37.463 116.384 38.135 116.032C38.807 115.68 39.611 115.504 40.547 115.504C40.939 115.504 41.323 115.544 41.699 115.624C42.083 115.696 42.427 115.808 42.731 115.96V117.424H42.683C42.379 117.248 42.047 117.116 41.687 117.028C41.335 116.94 40.999 116.896 40.679 116.896C39.767 116.896 39.047 117.148 38.519 117.652C37.999 118.156 37.739 118.88 37.739 119.824C37.739 120.76 37.995 121.48 38.507 121.984C39.019 122.488 39.719 122.74 40.607 122.74C40.951 122.74 41.299 122.688 41.651 122.584C42.011 122.472 42.355 122.316 42.683 122.116H42.731V123.592C42.091 123.96 41.339 124.144 40.475 124.144ZM48.6558 124L48.4998 123.244C47.9318 123.844 47.2478 124.144 46.4478 124.144C45.8158 124.144 45.2998 123.98 44.8998 123.652C44.5078 123.324 44.3118 122.892 44.3118 122.356C44.3118 121.66 44.5678 121.12 45.0798 120.736C45.5998 120.344 46.3478 120.148 47.3238 120.148C47.6758 120.148 48.0278 120.164 48.3798 120.196V119.968C48.3798 119.616 48.2798 119.356 48.0798 119.188C47.8798 119.012 47.5638 118.924 47.1318 118.924C46.7078 118.924 46.3118 118.996 45.9438 119.14C45.5838 119.276 45.1918 119.5 44.7678 119.812V118.396C45.1358 118.116 45.5198 117.912 45.9198 117.784C46.3198 117.656 46.7598 117.592 47.2398 117.592C48.1278 117.592 48.8038 117.784 49.2678 118.168C49.7398 118.544 49.9758 119.096 49.9758 119.824V122.608L50.2398 124H48.6558ZM45.8958 122.236C45.8958 122.7 46.1598 122.932 46.6878 122.932C46.9918 122.932 47.2798 122.872 47.5518 122.752C47.8238 122.624 48.0998 122.424 48.3798 122.152V121.3H47.2278C46.7638 121.3 46.4238 121.368 46.2078 121.504C45.9998 121.64 45.8958 121.884 45.8958 122.236ZM55.3167 117.604C55.7887 117.604 56.2047 117.74 56.5647 118.012C56.9327 118.276 57.2167 118.652 57.4167 119.14C57.6247 119.62 57.7287 120.176 57.7287 120.808C57.7287 121.432 57.6087 122 57.3687 122.512C57.1287 123.016 56.7967 123.416 56.3727 123.712C55.9567 124 55.4847 124.144 54.9567 124.144C54.3167 124.144 53.7487 124.012 53.2527 123.748V126.784H51.6687V119.128L51.4047 117.736H52.8567L53.1087 118.624C53.3967 118.296 53.7327 118.044 54.1167 117.868C54.5007 117.692 54.9007 117.604 55.3167 117.604ZM54.6327 122.836C55.5847 122.836 56.0607 122.168 56.0607 120.832C56.0607 120.216 55.9647 119.74 55.7727 119.404C55.5887 119.068 55.3167 118.9 54.9567 118.9C54.3807 118.9 53.8127 119.18 53.2527 119.74V122.644C53.7647 122.772 54.2247 122.836 54.6327 122.836ZM61.2165 117.736H62.6565V118.912H61.2165V121.936C61.2165 122.544 61.4485 122.848 61.9125 122.848C62.1285 122.848 62.3805 122.772 62.6685 122.62V123.928C62.4685 124 62.2805 124.052 62.1045 124.084C61.9365 124.124 61.7445 124.144 61.5285 124.144C60.2645 124.144 59.6325 123.408 59.6325 121.936V118.912H58.7205V117.736H59.6325V116.056L61.2165 115.504V117.736ZM68.5772 124L68.3492 123.184C67.9412 123.544 67.5812 123.796 67.2692 123.94C66.9652 124.076 66.6172 124.144 66.2252 124.144C65.8492 124.144 65.5052 124.056 65.1932 123.88C64.8892 123.704 64.6492 123.464 64.4732 123.16C64.3052 122.848 64.2212 122.5 64.2212 122.116V117.736H65.8052V121.216C65.8052 121.72 65.8852 122.1 66.0452 122.356C66.2052 122.612 66.4372 122.74 66.7412 122.74C66.9972 122.74 67.2372 122.684 67.4612 122.572C67.6852 122.46 67.9252 122.28 68.1812 122.032V117.736H69.7652V122.608L70.0292 124H68.5772ZM75.281 117.592V119.152H75.077C74.453 119.152 73.945 119.324 73.553 119.668V124H71.969V119.128L71.705 117.736H73.289L73.445 118.564C73.709 118.204 73.949 117.952 74.165 117.808C74.381 117.664 74.621 117.592 74.885 117.592H75.281ZM82.2816 121.348H77.9256C77.9896 121.828 78.1656 122.196 78.4536 122.452C78.7496 122.708 79.1416 122.836 79.6296 122.836C79.9896 122.836 80.3776 122.772 80.7936 122.644C81.2176 122.508 81.6096 122.324 81.9696 122.092H82.0176V123.376C81.6976 123.624 81.3296 123.816 80.9136 123.952C80.5056 124.08 80.0736 124.144 79.6176 124.144C78.9616 124.144 78.3896 124.012 77.9016 123.748C77.4136 123.484 77.0376 123.104 76.7736 122.608C76.5096 122.112 76.3776 121.532 76.3776 120.868C76.3776 120.22 76.5016 119.648 76.7496 119.152C77.0056 118.656 77.3616 118.272 77.8176 118C78.2736 117.728 78.8016 117.592 79.4016 117.592C79.9856 117.592 80.4936 117.724 80.9256 117.988C81.3656 118.252 81.7016 118.632 81.9336 119.128C82.1656 119.624 82.2816 120.204 82.2816 120.868V121.348ZM79.4016 118.864C79.0256 118.864 78.7096 118.988 78.4536 119.236C78.2056 119.484 78.0376 119.828 77.9496 120.268H80.6496C80.5856 119.812 80.4496 119.464 80.2416 119.224C80.0336 118.984 79.7536 118.864 79.4016 118.864Z"
          fill="#fff"/>
    <rect x="4" y="144" width="110" height="40" rx="6" fill="#23272F"/>
    <path d="M40.1305 160.04V162.128H43.7305V163.436H40.1305V165.608H43.9945V167H38.5465V158.648H43.9945V160.04H40.1305ZM49.4863 160.592C50.1183 160.592 50.6263 160.78 51.0103 161.156C51.4023 161.524 51.5983 162.012 51.5983 162.62V167H50.0143V163.52C50.0143 162.976 49.9303 162.588 49.7623 162.356C49.6023 162.116 49.3343 161.996 48.9583 161.996C48.5423 161.996 48.1023 162.228 47.6383 162.692V167H46.0543V162.128L45.7903 160.736H47.2423L47.4703 161.54C47.8143 161.204 48.1463 160.964 48.4663 160.82C48.7863 160.668 49.1263 160.592 49.4863 160.592ZM56.5981 167.144C55.9421 167.144 55.3661 167.012 54.8701 166.748C54.3821 166.476 54.0061 166.096 53.7421 165.608C53.4781 165.12 53.3461 164.548 53.3461 163.892C53.3461 163.236 53.4821 162.66 53.7541 162.164C54.0261 161.66 54.4061 161.272 54.8941 161C55.3901 160.728 55.9581 160.592 56.5981 160.592C57.3181 160.592 57.9261 160.74 58.4221 161.036V162.428H58.3741C58.1101 162.268 57.8221 162.148 57.5101 162.068C57.2061 161.988 56.9221 161.948 56.6581 161.948C56.1061 161.948 55.6901 162.112 55.4101 162.44C55.1301 162.768 54.9901 163.252 54.9901 163.892C54.9901 165.156 55.5381 165.788 56.6341 165.788C56.9221 165.788 57.2141 165.744 57.5101 165.656C57.8141 165.56 58.1021 165.428 58.3741 165.26H58.4221V166.676C57.9101 166.988 57.3021 167.144 56.5981 167.144ZM62.9826 167.144C62.3506 167.144 61.7946 167.012 61.3146 166.748C60.8346 166.476 60.4626 166.092 60.1986 165.596C59.9426 165.1 59.8146 164.524 59.8146 163.868C59.8146 163.212 59.9426 162.636 60.1986 162.14C60.4626 161.644 60.8346 161.264 61.3146 161C61.7946 160.728 62.3506 160.592 62.9826 160.592C63.6146 160.592 64.1706 160.728 64.6506 161C65.1306 161.264 65.4986 161.644 65.7546 162.14C66.0186 162.636 66.1506 163.212 66.1506 163.868C66.1506 164.524 66.0186 165.1 65.7546 165.596C65.4986 166.092 65.1306 166.476 64.6506 166.748C64.1706 167.012 63.6146 167.144 62.9826 167.144ZM62.9826 165.836C63.4546 165.836 63.8226 165.668 64.0866 165.332C64.3506 164.988 64.4826 164.5 64.4826 163.868C64.4826 163.228 64.3506 162.74 64.0866 162.404C63.8226 162.068 63.4546 161.9 62.9826 161.9C62.5106 161.9 62.1426 162.068 61.8786 162.404C61.6146 162.74 61.4826 163.228 61.4826 163.868C61.4826 164.5 61.6146 164.988 61.8786 165.332C62.1426 165.668 62.5106 165.836 62.9826 165.836ZM72.3144 167L72.0744 166.16C71.7864 166.472 71.4504 166.712 71.0664 166.88C70.6904 167.048 70.2944 167.132 69.8784 167.132C69.1424 167.132 68.5584 166.844 68.1264 166.268C67.7024 165.692 67.4904 164.908 67.4904 163.916C67.4904 162.868 67.7344 162.052 68.2224 161.468C68.7184 160.884 69.4144 160.592 70.3104 160.592C70.8864 160.592 71.4224 160.716 71.9184 160.964V157.952H73.5024V165.608L73.7664 167H72.3144ZM69.1584 163.892C69.1584 164.516 69.2544 164.996 69.4464 165.332C69.6384 165.668 69.9224 165.836 70.2984 165.836C70.8264 165.836 71.3664 165.572 71.9184 165.044V162.08C71.4544 161.96 71.0304 161.9 70.6464 161.9C70.1344 161.9 69.7584 162.064 69.5184 162.392C69.2784 162.712 69.1584 163.212 69.1584 163.892ZM81.0941 164.348H76.7381C76.8021 164.828 76.9781 165.196 77.2661 165.452C77.5621 165.708 77.9541 165.836 78.4421 165.836C78.8021 165.836 79.1901 165.772 79.6061 165.644C80.0301 165.508 80.4221 165.324 80.7821 165.092H80.8301V166.376C80.5101 166.624 80.1421 166.816 79.7261 166.952C79.3181 167.08 78.8861 167.144 78.4301 167.144C77.7741 167.144 77.2021 167.012 76.7141 166.748C76.2261 166.484 75.8501 166.104 75.5861 165.608C75.3221 165.112 75.1901 164.532 75.1901 163.868C75.1901 163.22 75.3141 162.648 75.5621 162.152C75.8181 161.656 76.1741 161.272 76.6301 161C77.0861 160.728 77.6141 160.592 78.2141 160.592C78.7981 160.592 79.3061 160.724 79.7381 160.988C80.1781 161.252 80.5141 161.632 80.7461 162.128C80.9781 162.624 81.0941 163.204 81.0941 163.868V164.348ZM78.2141 161.864C77.8381 161.864 77.5221 161.988 77.2661 162.236C77.0181 162.484 76.8501 162.828 76.7621 163.268H79.4621C79.3981 162.812 79.2621 162.464 79.0541 162.224C78.8461 161.984 78.5661 161.864 78.2141 161.864Z"
          fill="#fff"/>
    <defs>
        <linearGradient id="a" x1="133" y1="22.592" x2="338" y2="22.592" gradientUnits="userSpaceOnUse">
            <stop stop-color="#2096D9"/>
            <stop offset="1" stop-color="#5C35EE"/>
        </linearGradient>
        <linearGradient id="b" x1="140.407" y1="21.784" x2="168.407" y2="21.784" gradientUnits="userSpaceOnUse">
            <stop stop-color="#2096D9"/>
            <stop offset="1" stop-color="#5C35EE"/>
        </linearGradient>
        <linearGradient id="c" x1="316.21" y1="22.302" x2="322.136" y2="22.302" gradientUnits="userSpaceOnUse">
            <stop stop-color="#2096D9"/>
            <stop offset="1" stop-color="#5C35EE"/>
        </linearGradient>
        <linearGradient id="d" x1="305.346" y1="22.302" x2="311.272" y2="22.302" gradientUnits="userSpaceOnUse">
            <stop stop-color="#2096D9"/>
            <stop offset="1" stop-color="#5C35EE"/>
        </linearGradient>
        <linearGradient id="e" x1="294.481" y1="22.302" x2="300.407" y2="22.302" gradientUnits="userSpaceOnUse">
            <stop stop-color="#2096D9"/>
            <stop offset="1" stop-color="#5C35EE"/>
        </linearGradient>
        <linearGradient id="f" x1="133" y1="70.592" x2="338" y2="70.592" gradientUnits="userSpaceOnUse">
            <stop stop-color="#2096D9"/>
            <stop offset="1" stop-color="#5C35EE"/>
        </linearGradient>
        <linearGradient id="g" x1="140.407" y1="69.784" x2="168.407" y2="69.784" gradientUnits="userSpaceOnUse">
            <stop stop-color="#2096D9"/>
            <stop offset="1" stop-color="#5C35EE"/>
        </linearGradient>
        <linearGradient id="h" x1="316.21" y1="70.302" x2="322.136" y2="70.302" gradientUnits="userSpaceOnUse">
            <stop stop-color="#2096D9"/>
            <stop offset="1" stop-color="#5C35EE"/>
        </linearGradient>
        <linearGradient id="i" x1="305.346" y1="70.302" x2="311.272" y2="70.302" gradientUnits="userSpaceOnUse">
            <stop stop-color="#2096D9"/>
            <stop offset="1" stop-color="#5C35EE"/>
        </linearGradient>
        <linearGradient id="j" x1="294.481" y1="70.302" x2="300.407" y2="70.302" gradientUnits="userSpaceOnUse">
            <stop stop-color="#2096D9"/>
            <stop offset="1" stop-color="#5C35EE"/>
        </linearGradient>
        <linearGradient id="k" x1="133" y1="118.592" x2="338" y2="118.592" gradientUnits="userSpaceOnUse">
            <stop stop-color="#2096D9"/>
            <stop offset="1" stop-color="#5C35EE"/>
        </linearGradient>
        <linearGradient id="l" x1="140.407" y1="117.784" x2="168.407" y2="117.784" gradientUnits="userSpaceOnUse">
            <stop stop-color="#2096D9"/>
            <stop offset="1" stop-color="#5C35EE"/>
        </linearGradient>
        <linearGradient id="m" x1="316.21" y1="118.302" x2="322.136" y2="118.302" gradientUnits="userSpaceOnUse">
            <stop stop-color="#2096D9"/>
            <stop offset="1" stop-color="#5C35EE"/>
        </linearGradient>
        <linearGradient id="n" x1="305.346" y1="118.302" x2="311.272" y2="118.302" gradientUnits="userSpaceOnUse">
            <stop stop-color="#2096D9"/>
            <stop offset="1" stop-color="#5C35EE"/>
        </linearGradient>
        <linearGradient id="o" x1="294.481" y1="118.302" x2="300.407" y2="118.302" gradientUnits="userSpaceOnUse">
            <stop stop-color="#2096D9"/>
            <stop offset="1" stop-color="#5C35EE"/>
        </linearGradient>
        <linearGradient id="p" x1="133" y1="166.592" x2="338" y2="166.592" gradientUnits="userSpaceOnUse">
            <stop stop-color="#2096D9"/>
            <stop offset="1" stop-color="#5C35EE"/>
        </linearGradient>
        <linearGradient id="q" x1="140.407" y1="165.784" x2="168.407" y2="165.784" gradientUnits="userSpaceOnUse">
            <stop stop-color="#2096D9"/>
            <stop offset="1" stop-color="#5C35EE"/>
        </linearGradient>
        <linearGradient id="r" x1="316.21" y1="166.301" x2="322.136" y2="166.301" gradientUnits="userSpaceOnUse">
            <stop stop-color="#2096D9"/>
            <stop offset="1" stop-color="#5C35EE"/>
        </linearGradient>
        <linearGradient id="s" x1="305.346" y1="166.301" x2="311.272" y2="166.301" gradientUnits="userSpaceOnUse">
            <stop stop-color="#2096D9"/>
            <stop offset="1" stop-color="#5C35EE"/>
        </linearGradient>
        <linearGradient id="t" x1="294.481" y1="166.301" x2="300.407" y2="166.301" gradientUnits="userSpaceOnUse">
            <stop stop-color="#2096D9"/>
            <stop offset="1" stop-color="#5C35EE"/>
        </linearGradient>
        <linearGradient id="u" x1="177" y1="96.538" x2="295" y2="96.538" gradientUnits="userSpaceOnUse">
            <stop stop-color="#2096D9"/>
            <stop offset="1" stop-color="#5C35EE"/>
        </linearGradient>
    </defs>
</svg>
